<?xml version="1.0" encoding="utf-8" standalone="no"?>
<!DOCTYPE svg PUBLIC "-//W3C//DTD SVG 1.1//EN"
  "http://www.w3.org/Graphics/SVG/1.1/DTD/svg11.dtd">
<svg xmlns:xlink="http://www.w3.org/1999/xlink" width="868.14pt" height="146.528125pt" viewBox="0 0 868.14 146.528125" xmlns="http://www.w3.org/2000/svg" version="1.1">
 <metadata>
  <rdf:RDF xmlns:dc="http://purl.org/dc/elements/1.1/" xmlns:cc="http://creativecommons.org/ns#" xmlns:rdf="http://www.w3.org/1999/02/22-rdf-syntax-ns#">
   <cc:Work>
    <dc:type rdf:resource="http://purl.org/dc/dcmitype/StillImage"/>
    <dc:date>2026-07-02T15:04:16.467647</dc:date>
    <dc:format>image/svg+xml</dc:format>
    <dc:creator>
     <cc:Agent>
      <dc:title>Matplotlib v3.10.8, https://matplotlib.org/</dc:title>
     </cc:Agent>
    </dc:creator>
   </cc:Work>
  </rdf:RDF>
 </metadata>
 <defs>
  <style type="text/css">*{stroke-linejoin: round; stroke-linecap: butt}</style>
 </defs>
 <g id="figure_1">
  <g id="patch_1">
   <path d="M 0 146.528125
L 868.14 146.528125
L 868.14 0
L 0 0
z
" style="fill: #ffffff"/>
  </g>
  <g id="axes_1">
   <g id="patch_2">
    <path d="M 23.94 131.2
L 860.94 131.2
L 860.94 7.2
L 23.94 7.2
z
" style="fill: #ffffff"/>
   </g>
   <g id="patch_3">
    <path d="M 32.465 31.225
L 46.415 31.225
L 46.415 45.175
L 32.465 45.175
z
" clip-path="url(#pe9c6f54dbb)" style="fill: #eef8ea"/>
   </g>
   <g id="patch_4">
    <path d="M 32.465 46.725
L 46.415 46.725
L 46.415 60.675
L 32.465 60.675
z
" clip-path="url(#pe9c6f54dbb)" style="fill: #e8e8e8"/>
   </g>
   <g id="patch_5">
    <path d="M 32.465 62.225
L 46.415 62.225
L 46.415 76.175
L 32.465 76.175
z
" clip-path="url(#pe9c6f54dbb)" style="fill: #e8e8e8"/>
   </g>
   <g id="patch_6">
    <path d="M 32.465 77.725
L 46.415 77.725
L 46.415 91.675
L 32.465 91.675
z
" clip-path="url(#pe9c6f54dbb)" style="fill: #eef8ea"/>
   </g>
   <g id="patch_7">
    <path d="M 32.465 93.225
L 46.415 93.225
L 46.415 107.175
L 32.465 107.175
z
" clip-path="url(#pe9c6f54dbb)" style="fill: #e8e8e8"/>
   </g>
   <g id="patch_8">
    <path d="M 32.465 108.725
L 46.415 108.725
L 46.415 122.675
L 32.465 122.675
z
" clip-path="url(#pe9c6f54dbb)" style="fill: #e8e8e8"/>
   </g>
   <g id="patch_9">
    <path d="M 47.965 15.725
L 61.915 15.725
L 61.915 29.675
L 47.965 29.675
z
" clip-path="url(#pe9c6f54dbb)" style="fill: #e8e8e8"/>
   </g>
   <g id="patch_10">
    <path d="M 47.965 31.225
L 61.915 31.225
L 61.915 45.175
L 47.965 45.175
z
" clip-path="url(#pe9c6f54dbb)" style="fill: #e9f7e5"/>
   </g>
   <g id="patch_11">
    <path d="M 47.965 46.725
L 61.915 46.725
L 61.915 60.675
L 47.965 60.675
z
" clip-path="url(#pe9c6f54dbb)" style="fill: #e8e8e8"/>
   </g>
   <g id="patch_12">
    <path d="M 47.965 62.225
L 61.915 62.225
L 61.915 76.175
L 47.965 76.175
z
" clip-path="url(#pe9c6f54dbb)" style="fill: #e8e8e8"/>
   </g>
   <g id="patch_13">
    <path d="M 47.965 77.725
L 61.915 77.725
L 61.915 91.675
L 47.965 91.675
z
" clip-path="url(#pe9c6f54dbb)" style="fill: #e8e8e8"/>
   </g>
   <g id="patch_14">
    <path d="M 47.965 93.225
L 61.915 93.225
L 61.915 107.175
L 47.965 107.175
z
" clip-path="url(#pe9c6f54dbb)" style="fill: #eef8ea"/>
   </g>
   <g id="patch_15">
    <path d="M 47.965 108.725
L 61.915 108.725
L 61.915 122.675
L 47.965 122.675
z
" clip-path="url(#pe9c6f54dbb)" style="fill: #e8e8e8"/>
   </g>
   <g id="patch_16">
    <path d="M 63.465 15.725
L 77.415 15.725
L 77.415 29.675
L 63.465 29.675
z
" clip-path="url(#pe9c6f54dbb)" style="fill: #f2faf0"/>
   </g>
   <g id="patch_17">
    <path d="M 63.465 31.225
L 77.415 31.225
L 77.415 45.175
L 63.465 45.175
z
" clip-path="url(#pe9c6f54dbb)" style="fill: #e8e8e8"/>
   </g>
   <g id="patch_18">
    <path d="M 63.465 46.725
L 77.415 46.725
L 77.415 60.675
L 63.465 60.675
z
" clip-path="url(#pe9c6f54dbb)" style="fill: #f2faf0"/>
   </g>
   <g id="patch_19">
    <path d="M 63.465 62.225
L 77.415 62.225
L 77.415 76.175
L 63.465 76.175
z
" clip-path="url(#pe9c6f54dbb)" style="fill: #f2faf0"/>
   </g>
   <g id="patch_20">
    <path d="M 63.465 77.725
L 77.415 77.725
L 77.415 91.675
L 63.465 91.675
z
" clip-path="url(#pe9c6f54dbb)" style="fill: #f2faf0"/>
   </g>
   <g id="patch_21">
    <path d="M 63.465 93.225
L 77.415 93.225
L 77.415 107.175
L 63.465 107.175
z
" clip-path="url(#pe9c6f54dbb)" style="fill: #f2faf0"/>
   </g>
   <g id="patch_22">
    <path d="M 63.465 108.725
L 77.415 108.725
L 77.415 122.675
L 63.465 122.675
z
" clip-path="url(#pe9c6f54dbb)" style="fill: #e8e8e8"/>
   </g>
   <g id="patch_23">
    <path d="M 78.965 15.725
L 92.915 15.725
L 92.915 29.675
L 78.965 29.675
z
" clip-path="url(#pe9c6f54dbb)" style="fill: #e8e8e8"/>
   </g>
   <g id="patch_24">
    <path d="M 78.965 31.225
L 92.915 31.225
L 92.915 45.175
L 78.965 45.175
z
" clip-path="url(#pe9c6f54dbb)" style="fill: #eef8ea"/>
   </g>
   <g id="patch_25">
    <path d="M 78.965 46.725
L 92.915 46.725
L 92.915 60.675
L 78.965 60.675
z
" clip-path="url(#pe9c6f54dbb)" style="fill: #f2faf0"/>
   </g>
   <g id="patch_26">
    <path d="M 78.965 62.225
L 92.915 62.225
L 92.915 76.175
L 78.965 76.175
z
" clip-path="url(#pe9c6f54dbb)" style="fill: #e8e8e8"/>
   </g>
   <g id="patch_27">
    <path d="M 78.965 77.725
L 92.915 77.725
L 92.915 91.675
L 78.965 91.675
z
" clip-path="url(#pe9c6f54dbb)" style="fill: #e8e8e8"/>
   </g>
   <g id="patch_28">
    <path d="M 78.965 93.225
L 92.915 93.225
L 92.915 107.175
L 78.965 107.175
z
" clip-path="url(#pe9c6f54dbb)" style="fill: #e8e8e8"/>
   </g>
   <g id="patch_29">
    <path d="M 78.965 108.725
L 92.915 108.725
L 92.915 122.675
L 78.965 122.675
z
" clip-path="url(#pe9c6f54dbb)" style="fill: #e8e8e8"/>
   </g>
   <g id="patch_30">
    <path d="M 94.465 15.725
L 108.415 15.725
L 108.415 29.675
L 94.465 29.675
z
" clip-path="url(#pe9c6f54dbb)" style="fill: #e8e8e8"/>
   </g>
   <g id="patch_31">
    <path d="M 94.465 31.225
L 108.415 31.225
L 108.415 45.175
L 94.465 45.175
z
" clip-path="url(#pe9c6f54dbb)" style="fill: #e8e8e8"/>
   </g>
   <g id="patch_32">
    <path d="M 94.465 46.725
L 108.415 46.725
L 108.415 60.675
L 94.465 60.675
z
" clip-path="url(#pe9c6f54dbb)" style="fill: #e8e8e8"/>
   </g>
   <g id="patch_33">
    <path d="M 94.465 62.225
L 108.415 62.225
L 108.415 76.175
L 94.465 76.175
z
" clip-path="url(#pe9c6f54dbb)" style="fill: #e8e8e8"/>
   </g>
   <g id="patch_34">
    <path d="M 94.465 77.725
L 108.415 77.725
L 108.415 91.675
L 94.465 91.675
z
" clip-path="url(#pe9c6f54dbb)" style="fill: #e8e8e8"/>
   </g>
   <g id="patch_35">
    <path d="M 94.465 93.225
L 108.415 93.225
L 108.415 107.175
L 94.465 107.175
z
" clip-path="url(#pe9c6f54dbb)" style="fill: #e8e8e8"/>
   </g>
   <g id="patch_36">
    <path d="M 94.465 108.725
L 108.415 108.725
L 108.415 122.675
L 94.465 122.675
z
" clip-path="url(#pe9c6f54dbb)" style="fill: #e8e8e8"/>
   </g>
   <g id="patch_37">
    <path d="M 109.965 15.725
L 123.915 15.725
L 123.915 29.675
L 109.965 29.675
z
" clip-path="url(#pe9c6f54dbb)" style="fill: #e8e8e8"/>
   </g>
   <g id="patch_38">
    <path d="M 109.965 31.225
L 123.915 31.225
L 123.915 45.175
L 109.965 45.175
z
" clip-path="url(#pe9c6f54dbb)" style="fill: #e8e8e8"/>
   </g>
   <g id="patch_39">
    <path d="M 109.965 46.725
L 123.915 46.725
L 123.915 60.675
L 109.965 60.675
z
" clip-path="url(#pe9c6f54dbb)" style="fill: #e8e8e8"/>
   </g>
   <g id="patch_40">
    <path d="M 109.965 62.225
L 123.915 62.225
L 123.915 76.175
L 109.965 76.175
z
" clip-path="url(#pe9c6f54dbb)" style="fill: #e8e8e8"/>
   </g>
   <g id="patch_41">
    <path d="M 109.965 77.725
L 123.915 77.725
L 123.915 91.675
L 109.965 91.675
z
" clip-path="url(#pe9c6f54dbb)" style="fill: #e8e8e8"/>
   </g>
   <g id="patch_42">
    <path d="M 109.965 93.225
L 123.915 93.225
L 123.915 107.175
L 109.965 107.175
z
" clip-path="url(#pe9c6f54dbb)" style="fill: #e8e8e8"/>
   </g>
   <g id="patch_43">
    <path d="M 109.965 108.725
L 123.915 108.725
L 123.915 122.675
L 109.965 122.675
z
" clip-path="url(#pe9c6f54dbb)" style="fill: #e8e8e8"/>
   </g>
   <g id="patch_44">
    <path d="M 125.465 15.725
L 139.415 15.725
L 139.415 29.675
L 125.465 29.675
z
" clip-path="url(#pe9c6f54dbb)" style="fill: #e8e8e8"/>
   </g>
   <g id="patch_45">
    <path d="M 125.465 31.225
L 139.415 31.225
L 139.415 45.175
L 125.465 45.175
z
" clip-path="url(#pe9c6f54dbb)" style="fill: #e8e8e8"/>
   </g>
   <g id="patch_46">
    <path d="M 125.465 46.725
L 139.415 46.725
L 139.415 60.675
L 125.465 60.675
z
" clip-path="url(#pe9c6f54dbb)" style="fill: #e8e8e8"/>
   </g>
   <g id="patch_47">
    <path d="M 125.465 62.225
L 139.415 62.225
L 139.415 76.175
L 125.465 76.175
z
" clip-path="url(#pe9c6f54dbb)" style="fill: #e8e8e8"/>
   </g>
   <g id="patch_48">
    <path d="M 125.465 77.725
L 139.415 77.725
L 139.415 91.675
L 125.465 91.675
z
" clip-path="url(#pe9c6f54dbb)" style="fill: #e8e8e8"/>
   </g>
   <g id="patch_49">
    <path d="M 125.465 93.225
L 139.415 93.225
L 139.415 107.175
L 125.465 107.175
z
" clip-path="url(#pe9c6f54dbb)" style="fill: #e8e8e8"/>
   </g>
   <g id="patch_50">
    <path d="M 125.465 108.725
L 139.415 108.725
L 139.415 122.675
L 125.465 122.675
z
" clip-path="url(#pe9c6f54dbb)" style="fill: #e8e8e8"/>
   </g>
   <g id="patch_51">
    <path d="M 140.965 15.725
L 154.915 15.725
L 154.915 29.675
L 140.965 29.675
z
" clip-path="url(#pe9c6f54dbb)" style="fill: #e8e8e8"/>
   </g>
   <g id="patch_52">
    <path d="M 140.965 31.225
L 154.915 31.225
L 154.915 45.175
L 140.965 45.175
z
" clip-path="url(#pe9c6f54dbb)" style="fill: #e8e8e8"/>
   </g>
   <g id="patch_53">
    <path d="M 140.965 46.725
L 154.915 46.725
L 154.915 60.675
L 140.965 60.675
z
" clip-path="url(#pe9c6f54dbb)" style="fill: #e8e8e8"/>
   </g>
   <g id="patch_54">
    <path d="M 140.965 62.225
L 154.915 62.225
L 154.915 76.175
L 140.965 76.175
z
" clip-path="url(#pe9c6f54dbb)" style="fill: #e8e8e8"/>
   </g>
   <g id="patch_55">
    <path d="M 140.965 77.725
L 154.915 77.725
L 154.915 91.675
L 140.965 91.675
z
" clip-path="url(#pe9c6f54dbb)" style="fill: #e8e8e8"/>
   </g>
   <g id="patch_56">
    <path d="M 140.965 93.225
L 154.915 93.225
L 154.915 107.175
L 140.965 107.175
z
" clip-path="url(#pe9c6f54dbb)" style="fill: #e8e8e8"/>
   </g>
   <g id="patch_57">
    <path d="M 140.965 108.725
L 154.915 108.725
L 154.915 122.675
L 140.965 122.675
z
" clip-path="url(#pe9c6f54dbb)" style="fill: #e8e8e8"/>
   </g>
   <g id="patch_58">
    <path d="M 156.465 15.725
L 170.415 15.725
L 170.415 29.675
L 156.465 29.675
z
" clip-path="url(#pe9c6f54dbb)" style="fill: #e8e8e8"/>
   </g>
   <g id="patch_59">
    <path d="M 156.465 31.225
L 170.415 31.225
L 170.415 45.175
L 156.465 45.175
z
" clip-path="url(#pe9c6f54dbb)" style="fill: #e8e8e8"/>
   </g>
   <g id="patch_60">
    <path d="M 156.465 46.725
L 170.415 46.725
L 170.415 60.675
L 156.465 60.675
z
" clip-path="url(#pe9c6f54dbb)" style="fill: #e8e8e8"/>
   </g>
   <g id="patch_61">
    <path d="M 156.465 62.225
L 170.415 62.225
L 170.415 76.175
L 156.465 76.175
z
" clip-path="url(#pe9c6f54dbb)" style="fill: #e8e8e8"/>
   </g>
   <g id="patch_62">
    <path d="M 156.465 77.725
L 170.415 77.725
L 170.415 91.675
L 156.465 91.675
z
" clip-path="url(#pe9c6f54dbb)" style="fill: #e8e8e8"/>
   </g>
   <g id="patch_63">
    <path d="M 156.465 93.225
L 170.415 93.225
L 170.415 107.175
L 156.465 107.175
z
" clip-path="url(#pe9c6f54dbb)" style="fill: #e8e8e8"/>
   </g>
   <g id="patch_64">
    <path d="M 156.465 108.725
L 170.415 108.725
L 170.415 122.675
L 156.465 122.675
z
" clip-path="url(#pe9c6f54dbb)" style="fill: #e8e8e8"/>
   </g>
   <g id="patch_65">
    <path d="M 171.965 15.725
L 185.915 15.725
L 185.915 29.675
L 171.965 29.675
z
" clip-path="url(#pe9c6f54dbb)" style="fill: #e8e8e8"/>
   </g>
   <g id="patch_66">
    <path d="M 171.965 31.225
L 185.915 31.225
L 185.915 45.175
L 171.965 45.175
z
" clip-path="url(#pe9c6f54dbb)" style="fill: #e8e8e8"/>
   </g>
   <g id="patch_67">
    <path d="M 171.965 46.725
L 185.915 46.725
L 185.915 60.675
L 171.965 60.675
z
" clip-path="url(#pe9c6f54dbb)" style="fill: #a8dca2"/>
   </g>
   <g id="patch_68">
    <path d="M 171.965 62.225
L 185.915 62.225
L 185.915 76.175
L 171.965 76.175
z
" clip-path="url(#pe9c6f54dbb)" style="fill: #91d28e"/>
   </g>
   <g id="patch_69">
    <path d="M 171.965 77.725
L 185.915 77.725
L 185.915 91.675
L 171.965 91.675
z
" clip-path="url(#pe9c6f54dbb)" style="fill: #d5efcf"/>
   </g>
   <g id="patch_70">
    <path d="M 171.965 93.225
L 185.915 93.225
L 185.915 107.175
L 171.965 107.175
z
" clip-path="url(#pe9c6f54dbb)" style="fill: #e4f5df"/>
   </g>
   <g id="patch_71">
    <path d="M 171.965 108.725
L 185.915 108.725
L 185.915 122.675
L 171.965 122.675
z
" clip-path="url(#pe9c6f54dbb)" style="fill: #e9f7e5"/>
   </g>
   <g id="patch_72">
    <path d="M 187.465 15.725
L 201.415 15.725
L 201.415 29.675
L 187.465 29.675
z
" clip-path="url(#pe9c6f54dbb)" style="fill: #e8e8e8"/>
   </g>
   <g id="patch_73">
    <path d="M 187.465 31.225
L 201.415 31.225
L 201.415 45.175
L 187.465 45.175
z
" clip-path="url(#pe9c6f54dbb)" style="fill: #f2faf0"/>
   </g>
   <g id="patch_74">
    <path d="M 187.465 46.725
L 201.415 46.725
L 201.415 60.675
L 187.465 60.675
z
" clip-path="url(#pe9c6f54dbb)" style="fill: #c4e8bd"/>
   </g>
   <g id="patch_75">
    <path d="M 187.465 62.225
L 201.415 62.225
L 201.415 76.175
L 187.465 76.175
z
" clip-path="url(#pe9c6f54dbb)" style="fill: #a8dca2"/>
   </g>
   <g id="patch_76">
    <path d="M 187.465 77.725
L 201.415 77.725
L 201.415 91.675
L 187.465 91.675
z
" clip-path="url(#pe9c6f54dbb)" style="fill: #86cc85"/>
   </g>
   <g id="patch_77">
    <path d="M 187.465 93.225
L 201.415 93.225
L 201.415 107.175
L 187.465 107.175
z
" clip-path="url(#pe9c6f54dbb)" style="fill: #bbe4b4"/>
   </g>
   <g id="patch_78">
    <path d="M 187.465 108.725
L 201.415 108.725
L 201.415 122.675
L 187.465 122.675
z
" clip-path="url(#pe9c6f54dbb)" style="fill: #e8e8e8"/>
   </g>
   <g id="patch_79">
    <path d="M 202.965 15.725
L 216.915 15.725
L 216.915 29.675
L 202.965 29.675
z
" clip-path="url(#pe9c6f54dbb)" style="fill: #e8e8e8"/>
   </g>
   <g id="patch_80">
    <path d="M 202.965 31.225
L 216.915 31.225
L 216.915 45.175
L 202.965 45.175
z
" clip-path="url(#pe9c6f54dbb)" style="fill: #e9f7e5"/>
   </g>
   <g id="patch_81">
    <path d="M 202.965 46.725
L 216.915 46.725
L 216.915 60.675
L 202.965 60.675
z
" clip-path="url(#pe9c6f54dbb)" style="fill: #a8dca2"/>
   </g>
   <g id="patch_82">
    <path d="M 202.965 62.225
L 216.915 62.225
L 216.915 76.175
L 202.965 76.175
z
" clip-path="url(#pe9c6f54dbb)" style="fill: #7ac77b"/>
   </g>
   <g id="patch_83">
    <path d="M 202.965 77.725
L 216.915 77.725
L 216.915 91.675
L 202.965 91.675
z
" clip-path="url(#pe9c6f54dbb)" style="fill: #91d28e"/>
   </g>
   <g id="patch_84">
    <path d="M 202.965 93.225
L 216.915 93.225
L 216.915 107.175
L 202.965 107.175
z
" clip-path="url(#pe9c6f54dbb)" style="fill: #91d28e"/>
   </g>
   <g id="patch_85">
    <path d="M 202.965 108.725
L 216.915 108.725
L 216.915 122.675
L 202.965 122.675
z
" clip-path="url(#pe9c6f54dbb)" style="fill: #e9f7e5"/>
   </g>
   <g id="patch_86">
    <path d="M 218.465 15.725
L 232.415 15.725
L 232.415 29.675
L 218.465 29.675
z
" clip-path="url(#pe9c6f54dbb)" style="fill: #e8e8e8"/>
   </g>
   <g id="patch_87">
    <path d="M 218.465 31.225
L 232.415 31.225
L 232.415 45.175
L 218.465 45.175
z
" clip-path="url(#pe9c6f54dbb)" style="fill: #9cd797"/>
   </g>
   <g id="patch_88">
    <path d="M 218.465 46.725
L 232.415 46.725
L 232.415 60.675
L 218.465 60.675
z
" clip-path="url(#pe9c6f54dbb)" style="fill: #a8dca2"/>
   </g>
   <g id="patch_89">
    <path d="M 218.465 62.225
L 232.415 62.225
L 232.415 76.175
L 218.465 76.175
z
" clip-path="url(#pe9c6f54dbb)" style="fill: #b1e0ab"/>
   </g>
   <g id="patch_90">
    <path d="M 218.465 77.725
L 232.415 77.725
L 232.415 91.675
L 218.465 91.675
z
" clip-path="url(#pe9c6f54dbb)" style="fill: #a8dca2"/>
   </g>
   <g id="patch_91">
    <path d="M 218.465 93.225
L 232.415 93.225
L 232.415 107.175
L 218.465 107.175
z
" clip-path="url(#pe9c6f54dbb)" style="fill: #eef8ea"/>
   </g>
   <g id="patch_92">
    <path d="M 218.465 108.725
L 232.415 108.725
L 232.415 122.675
L 218.465 122.675
z
" clip-path="url(#pe9c6f54dbb)" style="fill: #e8e8e8"/>
   </g>
   <g id="patch_93">
    <path d="M 233.965 15.725
L 247.915 15.725
L 247.915 29.675
L 233.965 29.675
z
" clip-path="url(#pe9c6f54dbb)" style="fill: #e8e8e8"/>
   </g>
   <g id="patch_94">
    <path d="M 233.965 31.225
L 247.915 31.225
L 247.915 45.175
L 233.965 45.175
z
" clip-path="url(#pe9c6f54dbb)" style="fill: #e8e8e8"/>
   </g>
   <g id="patch_95">
    <path d="M 233.965 46.725
L 247.915 46.725
L 247.915 60.675
L 233.965 60.675
z
" clip-path="url(#pe9c6f54dbb)" style="fill: #c4e8bd"/>
   </g>
   <g id="patch_96">
    <path d="M 233.965 62.225
L 247.915 62.225
L 247.915 76.175
L 233.965 76.175
z
" clip-path="url(#pe9c6f54dbb)" style="fill: #e4f5df"/>
   </g>
   <g id="patch_97">
    <path d="M 233.965 77.725
L 247.915 77.725
L 247.915 91.675
L 233.965 91.675
z
" clip-path="url(#pe9c6f54dbb)" style="fill: #eef8ea"/>
   </g>
   <g id="patch_98">
    <path d="M 233.965 93.225
L 247.915 93.225
L 247.915 107.175
L 233.965 107.175
z
" clip-path="url(#pe9c6f54dbb)" style="fill: #a8dca2"/>
   </g>
   <g id="patch_99">
    <path d="M 233.965 108.725
L 247.915 108.725
L 247.915 122.675
L 233.965 122.675
z
" clip-path="url(#pe9c6f54dbb)" style="fill: #e8e8e8"/>
   </g>
   <g id="patch_100">
    <path d="M 249.465 15.725
L 263.415 15.725
L 263.415 29.675
L 249.465 29.675
z
" clip-path="url(#pe9c6f54dbb)" style="fill: #e8e8e8"/>
   </g>
   <g id="patch_101">
    <path d="M 249.465 31.225
L 263.415 31.225
L 263.415 45.175
L 249.465 45.175
z
" clip-path="url(#pe9c6f54dbb)" style="fill: #e8e8e8"/>
   </g>
   <g id="patch_102">
    <path d="M 249.465 46.725
L 263.415 46.725
L 263.415 60.675
L 249.465 60.675
z
" clip-path="url(#pe9c6f54dbb)" style="fill: #e9f7e5"/>
   </g>
   <g id="patch_103">
    <path d="M 249.465 62.225
L 263.415 62.225
L 263.415 76.175
L 249.465 76.175
z
" clip-path="url(#pe9c6f54dbb)" style="fill: #cdecc7"/>
   </g>
   <g id="patch_104">
    <path d="M 249.465 77.725
L 263.415 77.725
L 263.415 91.675
L 249.465 91.675
z
" clip-path="url(#pe9c6f54dbb)" style="fill: #46ae60"/>
   </g>
   <g id="patch_105">
    <path d="M 249.465 93.225
L 263.415 93.225
L 263.415 107.175
L 249.465 107.175
z
" clip-path="url(#pe9c6f54dbb)" style="fill: #60ba6c"/>
   </g>
   <g id="patch_106">
    <path d="M 249.465 108.725
L 263.415 108.725
L 263.415 122.675
L 249.465 122.675
z
" clip-path="url(#pe9c6f54dbb)" style="fill: #e8e8e8"/>
   </g>
   <g id="patch_107">
    <path d="M 264.965 15.725
L 278.915 15.725
L 278.915 29.675
L 264.965 29.675
z
" clip-path="url(#pe9c6f54dbb)" style="fill: #e8e8e8"/>
   </g>
   <g id="patch_108">
    <path d="M 264.965 31.225
L 278.915 31.225
L 278.915 45.175
L 264.965 45.175
z
" clip-path="url(#pe9c6f54dbb)" style="fill: #e8e8e8"/>
   </g>
   <g id="patch_109">
    <path d="M 264.965 46.725
L 278.915 46.725
L 278.915 60.675
L 264.965 60.675
z
" clip-path="url(#pe9c6f54dbb)" style="fill: #b1e0ab"/>
   </g>
   <g id="patch_110">
    <path d="M 264.965 62.225
L 278.915 62.225
L 278.915 76.175
L 264.965 76.175
z
" clip-path="url(#pe9c6f54dbb)" style="fill: #d5efcf"/>
   </g>
   <g id="patch_111">
    <path d="M 264.965 77.725
L 278.915 77.725
L 278.915 91.675
L 264.965 91.675
z
" clip-path="url(#pe9c6f54dbb)" style="fill: #eef8ea"/>
   </g>
   <g id="patch_112">
    <path d="M 264.965 93.225
L 278.915 93.225
L 278.915 107.175
L 264.965 107.175
z
" clip-path="url(#pe9c6f54dbb)" style="fill: #91d28e"/>
   </g>
   <g id="patch_113">
    <path d="M 264.965 108.725
L 278.915 108.725
L 278.915 122.675
L 264.965 122.675
z
" clip-path="url(#pe9c6f54dbb)" style="fill: #f2faf0"/>
   </g>
   <g id="patch_114">
    <path d="M 280.465 15.725
L 294.415 15.725
L 294.415 29.675
L 280.465 29.675
z
" clip-path="url(#pe9c6f54dbb)" style="fill: #f2faf0"/>
   </g>
   <g id="patch_115">
    <path d="M 280.465 31.225
L 294.415 31.225
L 294.415 45.175
L 280.465 45.175
z
" clip-path="url(#pe9c6f54dbb)" style="fill: #eef8ea"/>
   </g>
   <g id="patch_116">
    <path d="M 280.465 46.725
L 294.415 46.725
L 294.415 60.675
L 280.465 60.675
z
" clip-path="url(#pe9c6f54dbb)" style="fill: #e9f7e5"/>
   </g>
   <g id="patch_117">
    <path d="M 280.465 62.225
L 294.415 62.225
L 294.415 76.175
L 280.465 76.175
z
" clip-path="url(#pe9c6f54dbb)" style="fill: #eef8ea"/>
   </g>
   <g id="patch_118">
    <path d="M 280.465 77.725
L 294.415 77.725
L 294.415 91.675
L 280.465 91.675
z
" clip-path="url(#pe9c6f54dbb)" style="fill: #dcf2d7"/>
   </g>
   <g id="patch_119">
    <path d="M 280.465 93.225
L 294.415 93.225
L 294.415 107.175
L 280.465 107.175
z
" clip-path="url(#pe9c6f54dbb)" style="fill: #c4e8bd"/>
   </g>
   <g id="patch_120">
    <path d="M 280.465 108.725
L 294.415 108.725
L 294.415 122.675
L 280.465 122.675
z
" clip-path="url(#pe9c6f54dbb)" style="fill: #e8e8e8"/>
   </g>
   <g id="patch_121">
    <path d="M 295.965 15.725
L 309.915 15.725
L 309.915 29.675
L 295.965 29.675
z
" clip-path="url(#pe9c6f54dbb)" style="fill: #e8e8e8"/>
   </g>
   <g id="patch_122">
    <path d="M 295.965 31.225
L 309.915 31.225
L 309.915 45.175
L 295.965 45.175
z
" clip-path="url(#pe9c6f54dbb)" style="fill: #9cd797"/>
   </g>
   <g id="patch_123">
    <path d="M 295.965 46.725
L 309.915 46.725
L 309.915 60.675
L 295.965 60.675
z
" clip-path="url(#pe9c6f54dbb)" style="fill: #e4f5df"/>
   </g>
   <g id="patch_124">
    <path d="M 295.965 62.225
L 309.915 62.225
L 309.915 76.175
L 295.965 76.175
z
" clip-path="url(#pe9c6f54dbb)" style="fill: #e4f5df"/>
   </g>
   <g id="patch_125">
    <path d="M 295.965 77.725
L 309.915 77.725
L 309.915 91.675
L 295.965 91.675
z
" clip-path="url(#pe9c6f54dbb)" style="fill: #9cd797"/>
   </g>
   <g id="patch_126">
    <path d="M 295.965 93.225
L 309.915 93.225
L 309.915 107.175
L 295.965 107.175
z
" clip-path="url(#pe9c6f54dbb)" style="fill: #e9f7e5"/>
   </g>
   <g id="patch_127">
    <path d="M 295.965 108.725
L 309.915 108.725
L 309.915 122.675
L 295.965 122.675
z
" clip-path="url(#pe9c6f54dbb)" style="fill: #e8e8e8"/>
   </g>
   <g id="patch_128">
    <path d="M 311.465 15.725
L 325.415 15.725
L 325.415 29.675
L 311.465 29.675
z
" clip-path="url(#pe9c6f54dbb)" style="fill: #e8e8e8"/>
   </g>
   <g id="patch_129">
    <path d="M 311.465 31.225
L 325.415 31.225
L 325.415 45.175
L 311.465 45.175
z
" clip-path="url(#pe9c6f54dbb)" style="fill: #86cc85"/>
   </g>
   <g id="patch_130">
    <path d="M 311.465 46.725
L 325.415 46.725
L 325.415 60.675
L 311.465 60.675
z
" clip-path="url(#pe9c6f54dbb)" style="fill: #9cd797"/>
   </g>
   <g id="patch_131">
    <path d="M 311.465 62.225
L 325.415 62.225
L 325.415 76.175
L 311.465 76.175
z
" clip-path="url(#pe9c6f54dbb)" style="fill: #e4f5df"/>
   </g>
   <g id="patch_132">
    <path d="M 311.465 77.725
L 325.415 77.725
L 325.415 91.675
L 311.465 91.675
z
" clip-path="url(#pe9c6f54dbb)" style="fill: #e8e8e8"/>
   </g>
   <g id="patch_133">
    <path d="M 311.465 93.225
L 325.415 93.225
L 325.415 107.175
L 311.465 107.175
z
" clip-path="url(#pe9c6f54dbb)" style="fill: #cdecc7"/>
   </g>
   <g id="patch_134">
    <path d="M 311.465 108.725
L 325.415 108.725
L 325.415 122.675
L 311.465 122.675
z
" clip-path="url(#pe9c6f54dbb)" style="fill: #eef8ea"/>
   </g>
   <g id="patch_135">
    <path d="M 326.965 15.725
L 340.915 15.725
L 340.915 29.675
L 326.965 29.675
z
" clip-path="url(#pe9c6f54dbb)" style="fill: #e8e8e8"/>
   </g>
   <g id="patch_136">
    <path d="M 326.965 31.225
L 340.915 31.225
L 340.915 45.175
L 326.965 45.175
z
" clip-path="url(#pe9c6f54dbb)" style="fill: #c4e8bd"/>
   </g>
   <g id="patch_137">
    <path d="M 326.965 46.725
L 340.915 46.725
L 340.915 60.675
L 326.965 60.675
z
" clip-path="url(#pe9c6f54dbb)" style="fill: #a8dca2"/>
   </g>
   <g id="patch_138">
    <path d="M 326.965 62.225
L 340.915 62.225
L 340.915 76.175
L 326.965 76.175
z
" clip-path="url(#pe9c6f54dbb)" style="fill: #bbe4b4"/>
   </g>
   <g id="patch_139">
    <path d="M 326.965 77.725
L 340.915 77.725
L 340.915 91.675
L 326.965 91.675
z
" clip-path="url(#pe9c6f54dbb)" style="fill: #91d28e"/>
   </g>
   <g id="patch_140">
    <path d="M 326.965 93.225
L 340.915 93.225
L 340.915 107.175
L 326.965 107.175
z
" clip-path="url(#pe9c6f54dbb)" style="fill: #d5efcf"/>
   </g>
   <g id="patch_141">
    <path d="M 326.965 108.725
L 340.915 108.725
L 340.915 122.675
L 326.965 122.675
z
" clip-path="url(#pe9c6f54dbb)" style="fill: #e8e8e8"/>
   </g>
   <g id="patch_142">
    <path d="M 342.465 15.725
L 356.415 15.725
L 356.415 29.675
L 342.465 29.675
z
" clip-path="url(#pe9c6f54dbb)" style="fill: #e8e8e8"/>
   </g>
   <g id="patch_143">
    <path d="M 342.465 31.225
L 356.415 31.225
L 356.415 45.175
L 342.465 45.175
z
" clip-path="url(#pe9c6f54dbb)" style="fill: #eef8ea"/>
   </g>
   <g id="patch_144">
    <path d="M 342.465 46.725
L 356.415 46.725
L 356.415 60.675
L 342.465 60.675
z
" clip-path="url(#pe9c6f54dbb)" style="fill: #bbe4b4"/>
   </g>
   <g id="patch_145">
    <path d="M 342.465 62.225
L 356.415 62.225
L 356.415 76.175
L 342.465 76.175
z
" clip-path="url(#pe9c6f54dbb)" style="fill: #d5efcf"/>
   </g>
   <g id="patch_146">
    <path d="M 342.465 77.725
L 356.415 77.725
L 356.415 91.675
L 342.465 91.675
z
" clip-path="url(#pe9c6f54dbb)" style="fill: #cdecc7"/>
   </g>
   <g id="patch_147">
    <path d="M 342.465 93.225
L 356.415 93.225
L 356.415 107.175
L 342.465 107.175
z
" clip-path="url(#pe9c6f54dbb)" style="fill: #e4f5df"/>
   </g>
   <g id="patch_148">
    <path d="M 342.465 108.725
L 356.415 108.725
L 356.415 122.675
L 342.465 122.675
z
" clip-path="url(#pe9c6f54dbb)" style="fill: #e8e8e8"/>
   </g>
   <g id="patch_149">
    <path d="M 357.965 15.725
L 371.915 15.725
L 371.915 29.675
L 357.965 29.675
z
" clip-path="url(#pe9c6f54dbb)" style="fill: #e8e8e8"/>
   </g>
   <g id="patch_150">
    <path d="M 357.965 31.225
L 371.915 31.225
L 371.915 45.175
L 357.965 45.175
z
" clip-path="url(#pe9c6f54dbb)" style="fill: #e8e8e8"/>
   </g>
   <g id="patch_151">
    <path d="M 357.965 46.725
L 371.915 46.725
L 371.915 60.675
L 357.965 60.675
z
" clip-path="url(#pe9c6f54dbb)" style="fill: #bbe4b4"/>
   </g>
   <g id="patch_152">
    <path d="M 357.965 62.225
L 371.915 62.225
L 371.915 76.175
L 357.965 76.175
z
" clip-path="url(#pe9c6f54dbb)" style="fill: #91d28e"/>
   </g>
   <g id="patch_153">
    <path d="M 357.965 77.725
L 371.915 77.725
L 371.915 91.675
L 357.965 91.675
z
" clip-path="url(#pe9c6f54dbb)" style="fill: #6dc072"/>
   </g>
   <g id="patch_154">
    <path d="M 357.965 93.225
L 371.915 93.225
L 371.915 107.175
L 357.965 107.175
z
" clip-path="url(#pe9c6f54dbb)" style="fill: #b1e0ab"/>
   </g>
   <g id="patch_155">
    <path d="M 357.965 108.725
L 371.915 108.725
L 371.915 122.675
L 357.965 122.675
z
" clip-path="url(#pe9c6f54dbb)" style="fill: #6dc072"/>
   </g>
   <g id="patch_156">
    <path d="M 373.465 15.725
L 387.415 15.725
L 387.415 29.675
L 373.465 29.675
z
" clip-path="url(#pe9c6f54dbb)" style="fill: #6dc072"/>
   </g>
   <g id="patch_157">
    <path d="M 373.465 31.225
L 387.415 31.225
L 387.415 45.175
L 373.465 45.175
z
" clip-path="url(#pe9c6f54dbb)" style="fill: #6dc072"/>
   </g>
   <g id="patch_158">
    <path d="M 373.465 46.725
L 387.415 46.725
L 387.415 60.675
L 373.465 60.675
z
" clip-path="url(#pe9c6f54dbb)" style="fill: #6dc072"/>
   </g>
   <g id="patch_159">
    <path d="M 373.465 62.225
L 387.415 62.225
L 387.415 76.175
L 373.465 76.175
z
" clip-path="url(#pe9c6f54dbb)" style="fill: #9cd797"/>
   </g>
   <g id="patch_160">
    <path d="M 373.465 77.725
L 387.415 77.725
L 387.415 91.675
L 373.465 91.675
z
" clip-path="url(#pe9c6f54dbb)" style="fill: #b1e0ab"/>
   </g>
   <g id="patch_161">
    <path d="M 373.465 93.225
L 387.415 93.225
L 387.415 107.175
L 373.465 107.175
z
" clip-path="url(#pe9c6f54dbb)" style="fill: #60ba6c"/>
   </g>
   <g id="patch_162">
    <path d="M 373.465 108.725
L 387.415 108.725
L 387.415 122.675
L 373.465 122.675
z
" clip-path="url(#pe9c6f54dbb)" style="fill: #e4f5df"/>
   </g>
   <g id="patch_163">
    <path d="M 388.965 15.725
L 402.915 15.725
L 402.915 29.675
L 388.965 29.675
z
" clip-path="url(#pe9c6f54dbb)" style="fill: #f2faf0"/>
   </g>
   <g id="patch_164">
    <path d="M 388.965 31.225
L 402.915 31.225
L 402.915 45.175
L 388.965 45.175
z
" clip-path="url(#pe9c6f54dbb)" style="fill: #7ac77b"/>
   </g>
   <g id="patch_165">
    <path d="M 388.965 46.725
L 402.915 46.725
L 402.915 60.675
L 388.965 60.675
z
" clip-path="url(#pe9c6f54dbb)" style="fill: #b1e0ab"/>
   </g>
   <g id="patch_166">
    <path d="M 388.965 62.225
L 402.915 62.225
L 402.915 76.175
L 388.965 76.175
z
" clip-path="url(#pe9c6f54dbb)" style="fill: #00441b"/>
   </g>
   <g id="patch_167">
    <path d="M 388.965 77.725
L 402.915 77.725
L 402.915 91.675
L 388.965 91.675
z
" clip-path="url(#pe9c6f54dbb)" style="fill: #6dc072"/>
   </g>
   <g id="patch_168">
    <path d="M 388.965 93.225
L 402.915 93.225
L 402.915 107.175
L 388.965 107.175
z
" clip-path="url(#pe9c6f54dbb)" style="fill: #7ac77b"/>
   </g>
   <g id="patch_169">
    <path d="M 388.965 108.725
L 402.915 108.725
L 402.915 122.675
L 388.965 122.675
z
" clip-path="url(#pe9c6f54dbb)" style="fill: #cdecc7"/>
   </g>
   <g id="patch_170">
    <path d="M 404.465 15.725
L 418.415 15.725
L 418.415 29.675
L 404.465 29.675
z
" clip-path="url(#pe9c6f54dbb)" style="fill: #e8e8e8"/>
   </g>
   <g id="patch_171">
    <path d="M 404.465 31.225
L 418.415 31.225
L 418.415 45.175
L 404.465 45.175
z
" clip-path="url(#pe9c6f54dbb)" style="fill: #c4e8bd"/>
   </g>
   <g id="patch_172">
    <path d="M 404.465 46.725
L 418.415 46.725
L 418.415 60.675
L 404.465 60.675
z
" clip-path="url(#pe9c6f54dbb)" style="fill: #a8dca2"/>
   </g>
   <g id="patch_173">
    <path d="M 404.465 62.225
L 418.415 62.225
L 418.415 76.175
L 404.465 76.175
z
" clip-path="url(#pe9c6f54dbb)" style="fill: #b1e0ab"/>
   </g>
   <g id="patch_174">
    <path d="M 404.465 77.725
L 418.415 77.725
L 418.415 91.675
L 404.465 91.675
z
" clip-path="url(#pe9c6f54dbb)" style="fill: #c4e8bd"/>
   </g>
   <g id="patch_175">
    <path d="M 404.465 93.225
L 418.415 93.225
L 418.415 107.175
L 404.465 107.175
z
" clip-path="url(#pe9c6f54dbb)" style="fill: #bbe4b4"/>
   </g>
   <g id="patch_176">
    <path d="M 404.465 108.725
L 418.415 108.725
L 418.415 122.675
L 404.465 122.675
z
" clip-path="url(#pe9c6f54dbb)" style="fill: #d5efcf"/>
   </g>
   <g id="patch_177">
    <path d="M 419.965 15.725
L 433.915 15.725
L 433.915 29.675
L 419.965 29.675
z
" clip-path="url(#pe9c6f54dbb)" style="fill: #e8e8e8"/>
   </g>
   <g id="patch_178">
    <path d="M 419.965 31.225
L 433.915 31.225
L 433.915 45.175
L 419.965 45.175
z
" clip-path="url(#pe9c6f54dbb)" style="fill: #cdecc7"/>
   </g>
   <g id="patch_179">
    <path d="M 419.965 46.725
L 433.915 46.725
L 433.915 60.675
L 419.965 60.675
z
" clip-path="url(#pe9c6f54dbb)" style="fill: #d5efcf"/>
   </g>
   <g id="patch_180">
    <path d="M 419.965 62.225
L 433.915 62.225
L 433.915 76.175
L 419.965 76.175
z
" clip-path="url(#pe9c6f54dbb)" style="fill: #9cd797"/>
   </g>
   <g id="patch_181">
    <path d="M 419.965 77.725
L 433.915 77.725
L 433.915 91.675
L 419.965 91.675
z
" clip-path="url(#pe9c6f54dbb)" style="fill: #cdecc7"/>
   </g>
   <g id="patch_182">
    <path d="M 419.965 93.225
L 433.915 93.225
L 433.915 107.175
L 419.965 107.175
z
" clip-path="url(#pe9c6f54dbb)" style="fill: #86cc85"/>
   </g>
   <g id="patch_183">
    <path d="M 419.965 108.725
L 433.915 108.725
L 433.915 122.675
L 419.965 122.675
z
" clip-path="url(#pe9c6f54dbb)" style="fill: #e8e8e8"/>
   </g>
   <g id="patch_184">
    <path d="M 435.465 15.725
L 449.415 15.725
L 449.415 29.675
L 435.465 29.675
z
" clip-path="url(#pe9c6f54dbb)" style="fill: #e8e8e8"/>
   </g>
   <g id="patch_185">
    <path d="M 435.465 31.225
L 449.415 31.225
L 449.415 45.175
L 435.465 45.175
z
" clip-path="url(#pe9c6f54dbb)" style="fill: #a8dca2"/>
   </g>
   <g id="patch_186">
    <path d="M 435.465 46.725
L 449.415 46.725
L 449.415 60.675
L 435.465 60.675
z
" clip-path="url(#pe9c6f54dbb)" style="fill: #bbe4b4"/>
   </g>
   <g id="patch_187">
    <path d="M 435.465 62.225
L 449.415 62.225
L 449.415 76.175
L 435.465 76.175
z
" clip-path="url(#pe9c6f54dbb)" style="fill: #b1e0ab"/>
   </g>
   <g id="patch_188">
    <path d="M 435.465 77.725
L 449.415 77.725
L 449.415 91.675
L 435.465 91.675
z
" clip-path="url(#pe9c6f54dbb)" style="fill: #d5efcf"/>
   </g>
   <g id="patch_189">
    <path d="M 435.465 93.225
L 449.415 93.225
L 449.415 107.175
L 435.465 107.175
z
" clip-path="url(#pe9c6f54dbb)" style="fill: #dcf2d7"/>
   </g>
   <g id="patch_190">
    <path d="M 435.465 108.725
L 449.415 108.725
L 449.415 122.675
L 435.465 122.675
z
" clip-path="url(#pe9c6f54dbb)" style="fill: #eef8ea"/>
   </g>
   <g id="patch_191">
    <path d="M 450.965 15.725
L 464.915 15.725
L 464.915 29.675
L 450.965 29.675
z
" clip-path="url(#pe9c6f54dbb)" style="fill: #e8e8e8"/>
   </g>
   <g id="patch_192">
    <path d="M 450.965 31.225
L 464.915 31.225
L 464.915 45.175
L 450.965 45.175
z
" clip-path="url(#pe9c6f54dbb)" style="fill: #9cd797"/>
   </g>
   <g id="patch_193">
    <path d="M 450.965 46.725
L 464.915 46.725
L 464.915 60.675
L 450.965 60.675
z
" clip-path="url(#pe9c6f54dbb)" style="fill: #bbe4b4"/>
   </g>
   <g id="patch_194">
    <path d="M 450.965 62.225
L 464.915 62.225
L 464.915 76.175
L 450.965 76.175
z
" clip-path="url(#pe9c6f54dbb)" style="fill: #b1e0ab"/>
   </g>
   <g id="patch_195">
    <path d="M 450.965 77.725
L 464.915 77.725
L 464.915 91.675
L 450.965 91.675
z
" clip-path="url(#pe9c6f54dbb)" style="fill: #a8dca2"/>
   </g>
   <g id="patch_196">
    <path d="M 450.965 93.225
L 464.915 93.225
L 464.915 107.175
L 450.965 107.175
z
" clip-path="url(#pe9c6f54dbb)" style="fill: #c4e8bd"/>
   </g>
   <g id="patch_197">
    <path d="M 450.965 108.725
L 464.915 108.725
L 464.915 122.675
L 450.965 122.675
z
" clip-path="url(#pe9c6f54dbb)" style="fill: #eef8ea"/>
   </g>
   <g id="patch_198">
    <path d="M 466.465 15.725
L 480.415 15.725
L 480.415 29.675
L 466.465 29.675
z
" clip-path="url(#pe9c6f54dbb)" style="fill: #e8e8e8"/>
   </g>
   <g id="patch_199">
    <path d="M 466.465 31.225
L 480.415 31.225
L 480.415 45.175
L 466.465 45.175
z
" clip-path="url(#pe9c6f54dbb)" style="fill: #a8dca2"/>
   </g>
   <g id="patch_200">
    <path d="M 466.465 46.725
L 480.415 46.725
L 480.415 60.675
L 466.465 60.675
z
" clip-path="url(#pe9c6f54dbb)" style="fill: #60ba6c"/>
   </g>
   <g id="patch_201">
    <path d="M 466.465 62.225
L 480.415 62.225
L 480.415 76.175
L 466.465 76.175
z
" clip-path="url(#pe9c6f54dbb)" style="fill: #a8dca2"/>
   </g>
   <g id="patch_202">
    <path d="M 466.465 77.725
L 480.415 77.725
L 480.415 91.675
L 466.465 91.675
z
" clip-path="url(#pe9c6f54dbb)" style="fill: #d5efcf"/>
   </g>
   <g id="patch_203">
    <path d="M 466.465 93.225
L 480.415 93.225
L 480.415 107.175
L 466.465 107.175
z
" clip-path="url(#pe9c6f54dbb)" style="fill: #d5efcf"/>
   </g>
   <g id="patch_204">
    <path d="M 466.465 108.725
L 480.415 108.725
L 480.415 122.675
L 466.465 122.675
z
" clip-path="url(#pe9c6f54dbb)" style="fill: #e4f5df"/>
   </g>
   <g id="patch_205">
    <path d="M 481.965 15.725
L 495.915 15.725
L 495.915 29.675
L 481.965 29.675
z
" clip-path="url(#pe9c6f54dbb)" style="fill: #60ba6c"/>
   </g>
   <g id="patch_206">
    <path d="M 481.965 31.225
L 495.915 31.225
L 495.915 45.175
L 481.965 45.175
z
" clip-path="url(#pe9c6f54dbb)" style="fill: #e8e8e8"/>
   </g>
   <g id="patch_207">
    <path d="M 481.965 46.725
L 495.915 46.725
L 495.915 60.675
L 481.965 60.675
z
" clip-path="url(#pe9c6f54dbb)" style="fill: #e8e8e8"/>
   </g>
   <g id="patch_208">
    <path d="M 481.965 62.225
L 495.915 62.225
L 495.915 76.175
L 481.965 76.175
z
" clip-path="url(#pe9c6f54dbb)" style="fill: #c4e8bd"/>
   </g>
   <g id="patch_209">
    <path d="M 481.965 77.725
L 495.915 77.725
L 495.915 91.675
L 481.965 91.675
z
" clip-path="url(#pe9c6f54dbb)" style="fill: #d5efcf"/>
   </g>
   <g id="patch_210">
    <path d="M 481.965 93.225
L 495.915 93.225
L 495.915 107.175
L 481.965 107.175
z
" clip-path="url(#pe9c6f54dbb)" style="fill: #eef8ea"/>
   </g>
   <g id="patch_211">
    <path d="M 481.965 108.725
L 495.915 108.725
L 495.915 122.675
L 481.965 122.675
z
" clip-path="url(#pe9c6f54dbb)" style="fill: #e8e8e8"/>
   </g>
   <g id="patch_212">
    <path d="M 497.465 15.725
L 511.415 15.725
L 511.415 29.675
L 497.465 29.675
z
" clip-path="url(#pe9c6f54dbb)" style="fill: #e9f7e5"/>
   </g>
   <g id="patch_213">
    <path d="M 497.465 31.225
L 511.415 31.225
L 511.415 45.175
L 497.465 45.175
z
" clip-path="url(#pe9c6f54dbb)" style="fill: #e8e8e8"/>
   </g>
   <g id="patch_214">
    <path d="M 497.465 46.725
L 511.415 46.725
L 511.415 60.675
L 497.465 60.675
z
" clip-path="url(#pe9c6f54dbb)" style="fill: #f2faf0"/>
   </g>
   <g id="patch_215">
    <path d="M 497.465 62.225
L 511.415 62.225
L 511.415 76.175
L 497.465 76.175
z
" clip-path="url(#pe9c6f54dbb)" style="fill: #bbe4b4"/>
   </g>
   <g id="patch_216">
    <path d="M 497.465 77.725
L 511.415 77.725
L 511.415 91.675
L 497.465 91.675
z
" clip-path="url(#pe9c6f54dbb)" style="fill: #b1e0ab"/>
   </g>
   <g id="patch_217">
    <path d="M 497.465 93.225
L 511.415 93.225
L 511.415 107.175
L 497.465 107.175
z
" clip-path="url(#pe9c6f54dbb)" style="fill: #b1e0ab"/>
   </g>
   <g id="patch_218">
    <path d="M 497.465 108.725
L 511.415 108.725
L 511.415 122.675
L 497.465 122.675
z
" clip-path="url(#pe9c6f54dbb)" style="fill: #e8e8e8"/>
   </g>
   <g id="patch_219">
    <path d="M 512.965 15.725
L 526.915 15.725
L 526.915 29.675
L 512.965 29.675
z
" clip-path="url(#pe9c6f54dbb)" style="fill: #e8e8e8"/>
   </g>
   <g id="patch_220">
    <path d="M 512.965 31.225
L 526.915 31.225
L 526.915 45.175
L 512.965 45.175
z
" clip-path="url(#pe9c6f54dbb)" style="fill: #c4e8bd"/>
   </g>
   <g id="patch_221">
    <path d="M 512.965 46.725
L 526.915 46.725
L 526.915 60.675
L 512.965 60.675
z
" clip-path="url(#pe9c6f54dbb)" style="fill: #e9f7e5"/>
   </g>
   <g id="patch_222">
    <path d="M 512.965 62.225
L 526.915 62.225
L 526.915 76.175
L 512.965 76.175
z
" clip-path="url(#pe9c6f54dbb)" style="fill: #cdecc7"/>
   </g>
   <g id="patch_223">
    <path d="M 512.965 77.725
L 526.915 77.725
L 526.915 91.675
L 512.965 91.675
z
" clip-path="url(#pe9c6f54dbb)" style="fill: #b1e0ab"/>
   </g>
   <g id="patch_224">
    <path d="M 512.965 93.225
L 526.915 93.225
L 526.915 107.175
L 512.965 107.175
z
" clip-path="url(#pe9c6f54dbb)" style="fill: #c4e8bd"/>
   </g>
   <g id="patch_225">
    <path d="M 512.965 108.725
L 526.915 108.725
L 526.915 122.675
L 512.965 122.675
z
" clip-path="url(#pe9c6f54dbb)" style="fill: #b1e0ab"/>
   </g>
   <g id="patch_226">
    <path d="M 528.465 15.725
L 542.415 15.725
L 542.415 29.675
L 528.465 29.675
z
" clip-path="url(#pe9c6f54dbb)" style="fill: #dcf2d7"/>
   </g>
   <g id="patch_227">
    <path d="M 528.465 31.225
L 542.415 31.225
L 542.415 45.175
L 528.465 45.175
z
" clip-path="url(#pe9c6f54dbb)" style="fill: #a8dca2"/>
   </g>
   <g id="patch_228">
    <path d="M 528.465 46.725
L 542.415 46.725
L 542.415 60.675
L 528.465 60.675
z
" clip-path="url(#pe9c6f54dbb)" style="fill: #bbe4b4"/>
   </g>
   <g id="patch_229">
    <path d="M 528.465 62.225
L 542.415 62.225
L 542.415 76.175
L 528.465 76.175
z
" clip-path="url(#pe9c6f54dbb)" style="fill: #bbe4b4"/>
   </g>
   <g id="patch_230">
    <path d="M 528.465 77.725
L 542.415 77.725
L 542.415 91.675
L 528.465 91.675
z
" clip-path="url(#pe9c6f54dbb)" style="fill: #7ac77b"/>
   </g>
   <g id="patch_231">
    <path d="M 528.465 93.225
L 542.415 93.225
L 542.415 107.175
L 528.465 107.175
z
" clip-path="url(#pe9c6f54dbb)" style="fill: #006328"/>
   </g>
   <g id="patch_232">
    <path d="M 528.465 108.725
L 542.415 108.725
L 542.415 122.675
L 528.465 122.675
z
" clip-path="url(#pe9c6f54dbb)" style="fill: #eef8ea"/>
   </g>
   <g id="patch_233">
    <path d="M 543.965 15.725
L 557.915 15.725
L 557.915 29.675
L 543.965 29.675
z
" clip-path="url(#pe9c6f54dbb)" style="fill: #e8e8e8"/>
   </g>
   <g id="patch_234">
    <path d="M 543.965 31.225
L 557.915 31.225
L 557.915 45.175
L 543.965 45.175
z
" clip-path="url(#pe9c6f54dbb)" style="fill: #e9f7e5"/>
   </g>
   <g id="patch_235">
    <path d="M 543.965 46.725
L 557.915 46.725
L 557.915 60.675
L 543.965 60.675
z
" clip-path="url(#pe9c6f54dbb)" style="fill: #9cd797"/>
   </g>
   <g id="patch_236">
    <path d="M 543.965 62.225
L 557.915 62.225
L 557.915 76.175
L 543.965 76.175
z
" clip-path="url(#pe9c6f54dbb)" style="fill: #bbe4b4"/>
   </g>
   <g id="patch_237">
    <path d="M 543.965 77.725
L 557.915 77.725
L 557.915 91.675
L 543.965 91.675
z
" clip-path="url(#pe9c6f54dbb)" style="fill: #e9f7e5"/>
   </g>
   <g id="patch_238">
    <path d="M 543.965 93.225
L 557.915 93.225
L 557.915 107.175
L 543.965 107.175
z
" clip-path="url(#pe9c6f54dbb)" style="fill: #c4e8bd"/>
   </g>
   <g id="patch_239">
    <path d="M 543.965 108.725
L 557.915 108.725
L 557.915 122.675
L 543.965 122.675
z
" clip-path="url(#pe9c6f54dbb)" style="fill: #91d28e"/>
   </g>
   <g id="patch_240">
    <path d="M 559.465 15.725
L 573.415 15.725
L 573.415 29.675
L 559.465 29.675
z
" clip-path="url(#pe9c6f54dbb)" style="fill: #e8e8e8"/>
   </g>
   <g id="patch_241">
    <path d="M 559.465 31.225
L 573.415 31.225
L 573.415 45.175
L 559.465 45.175
z
" clip-path="url(#pe9c6f54dbb)" style="fill: #a8dca2"/>
   </g>
   <g id="patch_242">
    <path d="M 559.465 46.725
L 573.415 46.725
L 573.415 60.675
L 559.465 60.675
z
" clip-path="url(#pe9c6f54dbb)" style="fill: #cdecc7"/>
   </g>
   <g id="patch_243">
    <path d="M 559.465 62.225
L 573.415 62.225
L 573.415 76.175
L 559.465 76.175
z
" clip-path="url(#pe9c6f54dbb)" style="fill: #dcf2d7"/>
   </g>
   <g id="patch_244">
    <path d="M 559.465 77.725
L 573.415 77.725
L 573.415 91.675
L 559.465 91.675
z
" clip-path="url(#pe9c6f54dbb)" style="fill: #91d28e"/>
   </g>
   <g id="patch_245">
    <path d="M 559.465 93.225
L 573.415 93.225
L 573.415 107.175
L 559.465 107.175
z
" clip-path="url(#pe9c6f54dbb)" style="fill: #60ba6c"/>
   </g>
   <g id="patch_246">
    <path d="M 559.465 108.725
L 573.415 108.725
L 573.415 122.675
L 559.465 122.675
z
" clip-path="url(#pe9c6f54dbb)" style="fill: #cdecc7"/>
   </g>
   <g id="patch_247">
    <path d="M 574.965 15.725
L 588.915 15.725
L 588.915 29.675
L 574.965 29.675
z
" clip-path="url(#pe9c6f54dbb)" style="fill: #e8e8e8"/>
   </g>
   <g id="patch_248">
    <path d="M 574.965 31.225
L 588.915 31.225
L 588.915 45.175
L 574.965 45.175
z
" clip-path="url(#pe9c6f54dbb)" style="fill: #e8e8e8"/>
   </g>
   <g id="patch_249">
    <path d="M 574.965 46.725
L 588.915 46.725
L 588.915 60.675
L 574.965 60.675
z
" clip-path="url(#pe9c6f54dbb)" style="fill: #e8e8e8"/>
   </g>
   <g id="patch_250">
    <path d="M 574.965 62.225
L 588.915 62.225
L 588.915 76.175
L 574.965 76.175
z
" clip-path="url(#pe9c6f54dbb)" style="fill: #e8e8e8"/>
   </g>
   <g id="patch_251">
    <path d="M 574.965 77.725
L 588.915 77.725
L 588.915 91.675
L 574.965 91.675
z
" clip-path="url(#pe9c6f54dbb)" style="fill: #e8e8e8"/>
   </g>
   <g id="patch_252">
    <path d="M 574.965 93.225
L 588.915 93.225
L 588.915 107.175
L 574.965 107.175
z
" clip-path="url(#pe9c6f54dbb)" style="fill: #e8e8e8"/>
   </g>
   <g id="patch_253">
    <path d="M 574.965 108.725
L 588.915 108.725
L 588.915 122.675
L 574.965 122.675
z
" clip-path="url(#pe9c6f54dbb)" style="fill: #e8e8e8"/>
   </g>
   <g id="patch_254">
    <path d="M 590.465 15.725
L 604.415 15.725
L 604.415 29.675
L 590.465 29.675
z
" clip-path="url(#pe9c6f54dbb)" style="fill: #d5efcf"/>
   </g>
   <g id="patch_255">
    <path d="M 590.465 31.225
L 604.415 31.225
L 604.415 45.175
L 590.465 45.175
z
" clip-path="url(#pe9c6f54dbb)" style="fill: #6dc072"/>
   </g>
   <g id="patch_256">
    <path d="M 590.465 46.725
L 604.415 46.725
L 604.415 60.675
L 590.465 60.675
z
" clip-path="url(#pe9c6f54dbb)" style="fill: #e4f5df"/>
   </g>
   <g id="patch_257">
    <path d="M 590.465 62.225
L 604.415 62.225
L 604.415 76.175
L 590.465 76.175
z
" clip-path="url(#pe9c6f54dbb)" style="fill: #f2faf0"/>
   </g>
   <g id="patch_258">
    <path d="M 590.465 77.725
L 604.415 77.725
L 604.415 91.675
L 590.465 91.675
z
" clip-path="url(#pe9c6f54dbb)" style="fill: #e8e8e8"/>
   </g>
   <g id="patch_259">
    <path d="M 590.465 93.225
L 604.415 93.225
L 604.415 107.175
L 590.465 107.175
z
" clip-path="url(#pe9c6f54dbb)" style="fill: #e8e8e8"/>
   </g>
   <g id="patch_260">
    <path d="M 590.465 108.725
L 604.415 108.725
L 604.415 122.675
L 590.465 122.675
z
" clip-path="url(#pe9c6f54dbb)" style="fill: #c4e8bd"/>
   </g>
   <g id="patch_261">
    <path d="M 605.965 15.725
L 619.915 15.725
L 619.915 29.675
L 605.965 29.675
z
" clip-path="url(#pe9c6f54dbb)" style="fill: #dcf2d7"/>
   </g>
   <g id="patch_262">
    <path d="M 605.965 31.225
L 619.915 31.225
L 619.915 45.175
L 605.965 45.175
z
" clip-path="url(#pe9c6f54dbb)" style="fill: #86cc85"/>
   </g>
   <g id="patch_263">
    <path d="M 605.965 46.725
L 619.915 46.725
L 619.915 60.675
L 605.965 60.675
z
" clip-path="url(#pe9c6f54dbb)" style="fill: #d5efcf"/>
   </g>
   <g id="patch_264">
    <path d="M 605.965 62.225
L 619.915 62.225
L 619.915 76.175
L 605.965 76.175
z
" clip-path="url(#pe9c6f54dbb)" style="fill: #b1e0ab"/>
   </g>
   <g id="patch_265">
    <path d="M 605.965 77.725
L 619.915 77.725
L 619.915 91.675
L 605.965 91.675
z
" clip-path="url(#pe9c6f54dbb)" style="fill: #eef8ea"/>
   </g>
   <g id="patch_266">
    <path d="M 605.965 93.225
L 619.915 93.225
L 619.915 107.175
L 605.965 107.175
z
" clip-path="url(#pe9c6f54dbb)" style="fill: #e8e8e8"/>
   </g>
   <g id="patch_267">
    <path d="M 605.965 108.725
L 619.915 108.725
L 619.915 122.675
L 605.965 122.675
z
" clip-path="url(#pe9c6f54dbb)" style="fill: #e9f7e5"/>
   </g>
   <g id="patch_268">
    <path d="M 621.465 15.725
L 635.415 15.725
L 635.415 29.675
L 621.465 29.675
z
" clip-path="url(#pe9c6f54dbb)" style="fill: #eef8ea"/>
   </g>
   <g id="patch_269">
    <path d="M 621.465 31.225
L 635.415 31.225
L 635.415 45.175
L 621.465 45.175
z
" clip-path="url(#pe9c6f54dbb)" style="fill: #dcf2d7"/>
   </g>
   <g id="patch_270">
    <path d="M 621.465 46.725
L 635.415 46.725
L 635.415 60.675
L 621.465 60.675
z
" clip-path="url(#pe9c6f54dbb)" style="fill: #eef8ea"/>
   </g>
   <g id="patch_271">
    <path d="M 621.465 62.225
L 635.415 62.225
L 635.415 76.175
L 621.465 76.175
z
" clip-path="url(#pe9c6f54dbb)" style="fill: #e8e8e8"/>
   </g>
   <g id="patch_272">
    <path d="M 621.465 77.725
L 635.415 77.725
L 635.415 91.675
L 621.465 91.675
z
" clip-path="url(#pe9c6f54dbb)" style="fill: #e8e8e8"/>
   </g>
   <g id="patch_273">
    <path d="M 621.465 93.225
L 635.415 93.225
L 635.415 107.175
L 621.465 107.175
z
" clip-path="url(#pe9c6f54dbb)" style="fill: #e8e8e8"/>
   </g>
   <g id="patch_274">
    <path d="M 621.465 108.725
L 635.415 108.725
L 635.415 122.675
L 621.465 122.675
z
" clip-path="url(#pe9c6f54dbb)" style="fill: #e8e8e8"/>
   </g>
   <g id="patch_275">
    <path d="M 636.965 15.725
L 650.915 15.725
L 650.915 29.675
L 636.965 29.675
z
" clip-path="url(#pe9c6f54dbb)" style="fill: #f2faf0"/>
   </g>
   <g id="patch_276">
    <path d="M 636.965 31.225
L 650.915 31.225
L 650.915 45.175
L 636.965 45.175
z
" clip-path="url(#pe9c6f54dbb)" style="fill: #e9f7e5"/>
   </g>
   <g id="patch_277">
    <path d="M 636.965 46.725
L 650.915 46.725
L 650.915 60.675
L 636.965 60.675
z
" clip-path="url(#pe9c6f54dbb)" style="fill: #eef8ea"/>
   </g>
   <g id="patch_278">
    <path d="M 636.965 62.225
L 650.915 62.225
L 650.915 76.175
L 636.965 76.175
z
" clip-path="url(#pe9c6f54dbb)" style="fill: #86cc85"/>
   </g>
   <g id="patch_279">
    <path d="M 636.965 77.725
L 650.915 77.725
L 650.915 91.675
L 636.965 91.675
z
" clip-path="url(#pe9c6f54dbb)" style="fill: #f2faf0"/>
   </g>
   <g id="patch_280">
    <path d="M 636.965 93.225
L 650.915 93.225
L 650.915 107.175
L 636.965 107.175
z
" clip-path="url(#pe9c6f54dbb)" style="fill: #60ba6c"/>
   </g>
   <g id="patch_281">
    <path d="M 636.965 108.725
L 650.915 108.725
L 650.915 122.675
L 636.965 122.675
z
" clip-path="url(#pe9c6f54dbb)" style="fill: #dcf2d7"/>
   </g>
   <g id="patch_282">
    <path d="M 652.465 15.725
L 666.415 15.725
L 666.415 29.675
L 652.465 29.675
z
" clip-path="url(#pe9c6f54dbb)" style="fill: #f2faf0"/>
   </g>
   <g id="patch_283">
    <path d="M 652.465 31.225
L 666.415 31.225
L 666.415 45.175
L 652.465 45.175
z
" clip-path="url(#pe9c6f54dbb)" style="fill: #e9f7e5"/>
   </g>
   <g id="patch_284">
    <path d="M 652.465 46.725
L 666.415 46.725
L 666.415 60.675
L 652.465 60.675
z
" clip-path="url(#pe9c6f54dbb)" style="fill: #e4f5df"/>
   </g>
   <g id="patch_285">
    <path d="M 652.465 62.225
L 666.415 62.225
L 666.415 76.175
L 652.465 76.175
z
" clip-path="url(#pe9c6f54dbb)" style="fill: #dcf2d7"/>
   </g>
   <g id="patch_286">
    <path d="M 652.465 77.725
L 666.415 77.725
L 666.415 91.675
L 652.465 91.675
z
" clip-path="url(#pe9c6f54dbb)" style="fill: #eef8ea"/>
   </g>
   <g id="patch_287">
    <path d="M 652.465 93.225
L 666.415 93.225
L 666.415 107.175
L 652.465 107.175
z
" clip-path="url(#pe9c6f54dbb)" style="fill: #e4f5df"/>
   </g>
   <g id="patch_288">
    <path d="M 652.465 108.725
L 666.415 108.725
L 666.415 122.675
L 652.465 122.675
z
" clip-path="url(#pe9c6f54dbb)" style="fill: #e8e8e8"/>
   </g>
   <g id="patch_289">
    <path d="M 667.965 15.725
L 681.915 15.725
L 681.915 29.675
L 667.965 29.675
z
" clip-path="url(#pe9c6f54dbb)" style="fill: #e8e8e8"/>
   </g>
   <g id="patch_290">
    <path d="M 667.965 31.225
L 681.915 31.225
L 681.915 45.175
L 667.965 45.175
z
" clip-path="url(#pe9c6f54dbb)" style="fill: #dcf2d7"/>
   </g>
   <g id="patch_291">
    <path d="M 667.965 46.725
L 681.915 46.725
L 681.915 60.675
L 667.965 60.675
z
" clip-path="url(#pe9c6f54dbb)" style="fill: #c4e8bd"/>
   </g>
   <g id="patch_292">
    <path d="M 667.965 62.225
L 681.915 62.225
L 681.915 76.175
L 667.965 76.175
z
" clip-path="url(#pe9c6f54dbb)" style="fill: #eef8ea"/>
   </g>
   <g id="patch_293">
    <path d="M 667.965 77.725
L 681.915 77.725
L 681.915 91.675
L 667.965 91.675
z
" clip-path="url(#pe9c6f54dbb)" style="fill: #f2faf0"/>
   </g>
   <g id="patch_294">
    <path d="M 667.965 93.225
L 681.915 93.225
L 681.915 107.175
L 667.965 107.175
z
" clip-path="url(#pe9c6f54dbb)" style="fill: #f2faf0"/>
   </g>
   <g id="patch_295">
    <path d="M 667.965 108.725
L 681.915 108.725
L 681.915 122.675
L 667.965 122.675
z
" clip-path="url(#pe9c6f54dbb)" style="fill: #e9f7e5"/>
   </g>
   <g id="patch_296">
    <path d="M 683.465 15.725
L 697.415 15.725
L 697.415 29.675
L 683.465 29.675
z
" clip-path="url(#pe9c6f54dbb)" style="fill: #dcf2d7"/>
   </g>
   <g id="patch_297">
    <path d="M 683.465 31.225
L 697.415 31.225
L 697.415 45.175
L 683.465 45.175
z
" clip-path="url(#pe9c6f54dbb)" style="fill: #eef8ea"/>
   </g>
   <g id="patch_298">
    <path d="M 683.465 46.725
L 697.415 46.725
L 697.415 60.675
L 683.465 60.675
z
" clip-path="url(#pe9c6f54dbb)" style="fill: #dcf2d7"/>
   </g>
   <g id="patch_299">
    <path d="M 683.465 62.225
L 697.415 62.225
L 697.415 76.175
L 683.465 76.175
z
" clip-path="url(#pe9c6f54dbb)" style="fill: #a8dca2"/>
   </g>
   <g id="patch_300">
    <path d="M 683.465 77.725
L 697.415 77.725
L 697.415 91.675
L 683.465 91.675
z
" clip-path="url(#pe9c6f54dbb)" style="fill: #d5efcf"/>
   </g>
   <g id="patch_301">
    <path d="M 683.465 93.225
L 697.415 93.225
L 697.415 107.175
L 683.465 107.175
z
" clip-path="url(#pe9c6f54dbb)" style="fill: #e9f7e5"/>
   </g>
   <g id="patch_302">
    <path d="M 683.465 108.725
L 697.415 108.725
L 697.415 122.675
L 683.465 122.675
z
" clip-path="url(#pe9c6f54dbb)" style="fill: #b1e0ab"/>
   </g>
   <g id="patch_303">
    <path d="M 698.965 15.725
L 712.915 15.725
L 712.915 29.675
L 698.965 29.675
z
" clip-path="url(#pe9c6f54dbb)" style="fill: #e8e8e8"/>
   </g>
   <g id="patch_304">
    <path d="M 698.965 31.225
L 712.915 31.225
L 712.915 45.175
L 698.965 45.175
z
" clip-path="url(#pe9c6f54dbb)" style="fill: #c4e8bd"/>
   </g>
   <g id="patch_305">
    <path d="M 698.965 46.725
L 712.915 46.725
L 712.915 60.675
L 698.965 60.675
z
" clip-path="url(#pe9c6f54dbb)" style="fill: #91d28e"/>
   </g>
   <g id="patch_306">
    <path d="M 698.965 62.225
L 712.915 62.225
L 712.915 76.175
L 698.965 76.175
z
" clip-path="url(#pe9c6f54dbb)" style="fill: #c4e8bd"/>
   </g>
   <g id="patch_307">
    <path d="M 698.965 77.725
L 712.915 77.725
L 712.915 91.675
L 698.965 91.675
z
" clip-path="url(#pe9c6f54dbb)" style="fill: #f2faf0"/>
   </g>
   <g id="patch_308">
    <path d="M 698.965 93.225
L 712.915 93.225
L 712.915 107.175
L 698.965 107.175
z
" clip-path="url(#pe9c6f54dbb)" style="fill: #e9f7e5"/>
   </g>
   <g id="patch_309">
    <path d="M 698.965 108.725
L 712.915 108.725
L 712.915 122.675
L 698.965 122.675
z
" clip-path="url(#pe9c6f54dbb)" style="fill: #dcf2d7"/>
   </g>
   <g id="patch_310">
    <path d="M 714.465 15.725
L 728.415 15.725
L 728.415 29.675
L 714.465 29.675
z
" clip-path="url(#pe9c6f54dbb)" style="fill: #005924"/>
   </g>
   <g id="patch_311">
    <path d="M 714.465 31.225
L 728.415 31.225
L 728.415 45.175
L 714.465 45.175
z
" clip-path="url(#pe9c6f54dbb)" style="fill: #bbe4b4"/>
   </g>
   <g id="patch_312">
    <path d="M 714.465 46.725
L 728.415 46.725
L 728.415 60.675
L 714.465 60.675
z
" clip-path="url(#pe9c6f54dbb)" style="fill: #bbe4b4"/>
   </g>
   <g id="patch_313">
    <path d="M 714.465 62.225
L 728.415 62.225
L 728.415 76.175
L 714.465 76.175
z
" clip-path="url(#pe9c6f54dbb)" style="fill: #b1e0ab"/>
   </g>
   <g id="patch_314">
    <path d="M 714.465 77.725
L 728.415 77.725
L 728.415 91.675
L 714.465 91.675
z
" clip-path="url(#pe9c6f54dbb)" style="fill: #9cd797"/>
   </g>
   <g id="patch_315">
    <path d="M 714.465 93.225
L 728.415 93.225
L 728.415 107.175
L 714.465 107.175
z
" clip-path="url(#pe9c6f54dbb)" style="fill: #f2faf0"/>
   </g>
   <g id="patch_316">
    <path d="M 714.465 108.725
L 728.415 108.725
L 728.415 122.675
L 714.465 122.675
z
" clip-path="url(#pe9c6f54dbb)" style="fill: #e8e8e8"/>
   </g>
   <g id="patch_317">
    <path d="M 729.965 15.725
L 743.915 15.725
L 743.915 29.675
L 729.965 29.675
z
" clip-path="url(#pe9c6f54dbb)" style="fill: #eef8ea"/>
   </g>
   <g id="patch_318">
    <path d="M 729.965 31.225
L 743.915 31.225
L 743.915 45.175
L 729.965 45.175
z
" clip-path="url(#pe9c6f54dbb)" style="fill: #c4e8bd"/>
   </g>
   <g id="patch_319">
    <path d="M 729.965 46.725
L 743.915 46.725
L 743.915 60.675
L 729.965 60.675
z
" clip-path="url(#pe9c6f54dbb)" style="fill: #b1e0ab"/>
   </g>
   <g id="patch_320">
    <path d="M 729.965 62.225
L 743.915 62.225
L 743.915 76.175
L 729.965 76.175
z
" clip-path="url(#pe9c6f54dbb)" style="fill: #e9f7e5"/>
   </g>
   <g id="patch_321">
    <path d="M 729.965 77.725
L 743.915 77.725
L 743.915 91.675
L 729.965 91.675
z
" clip-path="url(#pe9c6f54dbb)" style="fill: #e4f5df"/>
   </g>
   <g id="patch_322">
    <path d="M 729.965 93.225
L 743.915 93.225
L 743.915 107.175
L 729.965 107.175
z
" clip-path="url(#pe9c6f54dbb)" style="fill: #c4e8bd"/>
   </g>
   <g id="patch_323">
    <path d="M 729.965 108.725
L 743.915 108.725
L 743.915 122.675
L 729.965 122.675
z
" clip-path="url(#pe9c6f54dbb)" style="fill: #dcf2d7"/>
   </g>
   <g id="patch_324">
    <path d="M 745.465 15.725
L 759.415 15.725
L 759.415 29.675
L 745.465 29.675
z
" clip-path="url(#pe9c6f54dbb)" style="fill: #53b466"/>
   </g>
   <g id="patch_325">
    <path d="M 745.465 31.225
L 759.415 31.225
L 759.415 45.175
L 745.465 45.175
z
" clip-path="url(#pe9c6f54dbb)" style="fill: #60ba6c"/>
   </g>
   <g id="patch_326">
    <path d="M 745.465 46.725
L 759.415 46.725
L 759.415 60.675
L 745.465 60.675
z
" clip-path="url(#pe9c6f54dbb)" style="fill: #60ba6c"/>
   </g>
   <g id="patch_327">
    <path d="M 745.465 62.225
L 759.415 62.225
L 759.415 76.175
L 745.465 76.175
z
" clip-path="url(#pe9c6f54dbb)" style="fill: #258d47"/>
   </g>
   <g id="patch_328">
    <path d="M 745.465 77.725
L 759.415 77.725
L 759.415 91.675
L 745.465 91.675
z
" clip-path="url(#pe9c6f54dbb)" style="fill: #46ae60"/>
   </g>
   <g id="patch_329">
    <path d="M 745.465 93.225
L 759.415 93.225
L 759.415 107.175
L 745.465 107.175
z
" clip-path="url(#pe9c6f54dbb)" style="fill: #e4f5df"/>
   </g>
   <g id="patch_330">
    <path d="M 745.465 108.725
L 759.415 108.725
L 759.415 122.675
L 745.465 122.675
z
" clip-path="url(#pe9c6f54dbb)" style="fill: #e4f5df"/>
   </g>
   <g id="patch_331">
    <path d="M 760.965 15.725
L 774.915 15.725
L 774.915 29.675
L 760.965 29.675
z
" clip-path="url(#pe9c6f54dbb)" style="fill: #cdecc7"/>
   </g>
   <g id="patch_332">
    <path d="M 760.965 31.225
L 774.915 31.225
L 774.915 45.175
L 760.965 45.175
z
" clip-path="url(#pe9c6f54dbb)" style="fill: #91d28e"/>
   </g>
   <g id="patch_333">
    <path d="M 760.965 46.725
L 774.915 46.725
L 774.915 60.675
L 760.965 60.675
z
" clip-path="url(#pe9c6f54dbb)" style="fill: #91d28e"/>
   </g>
   <g id="patch_334">
    <path d="M 760.965 62.225
L 774.915 62.225
L 774.915 76.175
L 760.965 76.175
z
" clip-path="url(#pe9c6f54dbb)" style="fill: #bbe4b4"/>
   </g>
   <g id="patch_335">
    <path d="M 760.965 77.725
L 774.915 77.725
L 774.915 91.675
L 760.965 91.675
z
" clip-path="url(#pe9c6f54dbb)" style="fill: #349d53"/>
   </g>
   <g id="patch_336">
    <path d="M 760.965 93.225
L 774.915 93.225
L 774.915 107.175
L 760.965 107.175
z
" clip-path="url(#pe9c6f54dbb)" style="fill: #dcf2d7"/>
   </g>
   <g id="patch_337">
    <path d="M 760.965 108.725
L 774.915 108.725
L 774.915 122.675
L 760.965 122.675
z
" clip-path="url(#pe9c6f54dbb)" style="fill: #258d47"/>
   </g>
   <g id="patch_338">
    <path d="M 776.465 15.725
L 790.415 15.725
L 790.415 29.675
L 776.465 29.675
z
" clip-path="url(#pe9c6f54dbb)" style="fill: #e9f7e5"/>
   </g>
   <g id="patch_339">
    <path d="M 776.465 31.225
L 790.415 31.225
L 790.415 45.175
L 776.465 45.175
z
" clip-path="url(#pe9c6f54dbb)" style="fill: #9cd797"/>
   </g>
   <g id="patch_340">
    <path d="M 776.465 46.725
L 790.415 46.725
L 790.415 60.675
L 776.465 60.675
z
" clip-path="url(#pe9c6f54dbb)" style="fill: #004e1f"/>
   </g>
   <g id="patch_341">
    <path d="M 776.465 62.225
L 790.415 62.225
L 790.415 76.175
L 776.465 76.175
z
" clip-path="url(#pe9c6f54dbb)" style="fill: #9cd797"/>
   </g>
   <g id="patch_342">
    <path d="M 776.465 77.725
L 790.415 77.725
L 790.415 91.675
L 776.465 91.675
z
" clip-path="url(#pe9c6f54dbb)" style="fill: #c4e8bd"/>
   </g>
   <g id="patch_343">
    <path d="M 776.465 93.225
L 790.415 93.225
L 790.415 107.175
L 776.465 107.175
z
" clip-path="url(#pe9c6f54dbb)" style="fill: #b1e0ab"/>
   </g>
   <g id="patch_344">
    <path d="M 776.465 108.725
L 790.415 108.725
L 790.415 122.675
L 776.465 122.675
z
" clip-path="url(#pe9c6f54dbb)" style="fill: #eef8ea"/>
   </g>
   <g id="patch_345">
    <path d="M 791.965 15.725
L 805.915 15.725
L 805.915 29.675
L 791.965 29.675
z
" clip-path="url(#pe9c6f54dbb)" style="fill: #f2faf0"/>
   </g>
   <g id="patch_346">
    <path d="M 791.965 31.225
L 805.915 31.225
L 805.915 45.175
L 791.965 45.175
z
" clip-path="url(#pe9c6f54dbb)" style="fill: #c4e8bd"/>
   </g>
   <g id="patch_347">
    <path d="M 791.965 46.725
L 805.915 46.725
L 805.915 60.675
L 791.965 60.675
z
" clip-path="url(#pe9c6f54dbb)" style="fill: #d5efcf"/>
   </g>
   <g id="patch_348">
    <path d="M 791.965 62.225
L 805.915 62.225
L 805.915 76.175
L 791.965 76.175
z
" clip-path="url(#pe9c6f54dbb)" style="fill: #bbe4b4"/>
   </g>
   <g id="patch_349">
    <path d="M 791.965 77.725
L 805.915 77.725
L 805.915 91.675
L 791.965 91.675
z
" clip-path="url(#pe9c6f54dbb)" style="fill: #d5efcf"/>
   </g>
   <g id="patch_350">
    <path d="M 791.965 93.225
L 805.915 93.225
L 805.915 107.175
L 791.965 107.175
z
" clip-path="url(#pe9c6f54dbb)" style="fill: #e9f7e5"/>
   </g>
   <g id="patch_351">
    <path d="M 791.965 108.725
L 805.915 108.725
L 805.915 122.675
L 791.965 122.675
z
" clip-path="url(#pe9c6f54dbb)" style="fill: #eef8ea"/>
   </g>
   <g id="patch_352">
    <path d="M 807.465 15.725
L 821.415 15.725
L 821.415 29.675
L 807.465 29.675
z
" clip-path="url(#pe9c6f54dbb)" style="fill: #f2faf0"/>
   </g>
   <g id="patch_353">
    <path d="M 807.465 31.225
L 821.415 31.225
L 821.415 45.175
L 807.465 45.175
z
" clip-path="url(#pe9c6f54dbb)" style="fill: #d5efcf"/>
   </g>
   <g id="patch_354">
    <path d="M 807.465 46.725
L 821.415 46.725
L 821.415 60.675
L 807.465 60.675
z
" clip-path="url(#pe9c6f54dbb)" style="fill: #d5efcf"/>
   </g>
   <g id="patch_355">
    <path d="M 807.465 62.225
L 821.415 62.225
L 821.415 76.175
L 807.465 76.175
z
" clip-path="url(#pe9c6f54dbb)" style="fill: #9cd797"/>
   </g>
   <g id="patch_356">
    <path d="M 807.465 77.725
L 821.415 77.725
L 821.415 91.675
L 807.465 91.675
z
" clip-path="url(#pe9c6f54dbb)" style="fill: #bbe4b4"/>
   </g>
   <g id="patch_357">
    <path d="M 807.465 93.225
L 821.415 93.225
L 821.415 107.175
L 807.465 107.175
z
" clip-path="url(#pe9c6f54dbb)" style="fill: #91d28e"/>
   </g>
   <g id="patch_358">
    <path d="M 807.465 108.725
L 821.415 108.725
L 821.415 122.675
L 807.465 122.675
z
" clip-path="url(#pe9c6f54dbb)" style="fill: #d5efcf"/>
   </g>
   <g id="patch_359">
    <path d="M 822.965 15.725
L 836.915 15.725
L 836.915 29.675
L 822.965 29.675
z
" clip-path="url(#pe9c6f54dbb)" style="fill: #e8e8e8"/>
   </g>
   <g id="patch_360">
    <path d="M 822.965 31.225
L 836.915 31.225
L 836.915 45.175
L 822.965 45.175
z
" clip-path="url(#pe9c6f54dbb)" style="fill: #e8e8e8"/>
   </g>
   <g id="patch_361">
    <path d="M 822.965 46.725
L 836.915 46.725
L 836.915 60.675
L 822.965 60.675
z
" clip-path="url(#pe9c6f54dbb)" style="fill: #e8e8e8"/>
   </g>
   <g id="patch_362">
    <path d="M 822.965 62.225
L 836.915 62.225
L 836.915 76.175
L 822.965 76.175
z
" clip-path="url(#pe9c6f54dbb)" style="fill: #e8e8e8"/>
   </g>
   <g id="patch_363">
    <path d="M 822.965 77.725
L 836.915 77.725
L 836.915 91.675
L 822.965 91.675
z
" clip-path="url(#pe9c6f54dbb)" style="fill: #e8e8e8"/>
   </g>
   <g id="patch_364">
    <path d="M 822.965 93.225
L 836.915 93.225
L 836.915 107.175
L 822.965 107.175
z
" clip-path="url(#pe9c6f54dbb)" style="fill: #e8e8e8"/>
   </g>
   <g id="patch_365">
    <path d="M 822.965 108.725
L 836.915 108.725
L 836.915 122.675
L 822.965 122.675
z
" clip-path="url(#pe9c6f54dbb)" style="fill: #e8e8e8"/>
   </g>
   <g id="patch_366">
    <path d="M 838.465 15.725
L 852.415 15.725
L 852.415 29.675
L 838.465 29.675
z
" clip-path="url(#pe9c6f54dbb)" style="fill: #e8e8e8"/>
   </g>
   <g id="patch_367">
    <path d="M 838.465 31.225
L 852.415 31.225
L 852.415 45.175
L 838.465 45.175
z
" clip-path="url(#pe9c6f54dbb)" style="fill: #86cc85"/>
   </g>
   <g id="patch_368">
    <path d="M 838.465 46.725
L 852.415 46.725
L 852.415 60.675
L 838.465 60.675
z
" clip-path="url(#pe9c6f54dbb)" style="fill: #f2faf0"/>
   </g>
   <g id="matplotlib.axis_1"/>
   <g id="matplotlib.axis_2"/>
   <g id="text_1">
    <!-- Jan -->
    <g transform="translate(33.24 137.248437) scale(0.1 -0.1)">
     <defs>
      <path id="DejaVuSans-4a" d="M 628 4666
L 1259 4666
L 1259 325
Q 1259 -519 939 -900
Q 619 -1281 -91 -1281
L -331 -1281
L -331 -750
L -134 -750
Q 284 -750 456 -515
Q 628 -281 628 325
L 628 4666
z
" transform="scale(0.015625)"/>
      <path id="DejaVuSans-61" d="M 2194 1759
Q 1497 1759 1228 1600
Q 959 1441 959 1056
Q 959 750 1161 570
Q 1363 391 1709 391
Q 2188 391 2477 730
Q 2766 1069 2766 1631
L 2766 1759
L 2194 1759
z
M 3341 1997
L 3341 0
L 2766 0
L 2766 531
Q 2569 213 2275 61
Q 1981 -91 1556 -91
Q 1019 -91 701 211
Q 384 513 384 1019
Q 384 1609 779 1909
Q 1175 2209 1959 2209
L 2766 2209
L 2766 2266
Q 2766 2663 2505 2880
Q 2244 3097 1772 3097
Q 1472 3097 1187 3025
Q 903 2953 641 2809
L 641 3341
Q 956 3463 1253 3523
Q 1550 3584 1831 3584
Q 2591 3584 2966 3190
Q 3341 2797 3341 1997
z
" transform="scale(0.015625)"/>
      <path id="DejaVuSans-6e" d="M 3513 2113
L 3513 0
L 2938 0
L 2938 2094
Q 2938 2591 2744 2837
Q 2550 3084 2163 3084
Q 1697 3084 1428 2787
Q 1159 2491 1159 1978
L 1159 0
L 581 0
L 581 3500
L 1159 3500
L 1159 2956
Q 1366 3272 1645 3428
Q 1925 3584 2291 3584
Q 2894 3584 3203 3211
Q 3513 2838 3513 2113
z
" transform="scale(0.015625)"/>
     </defs>
     <use xlink:href="#DejaVuSans-4a"/>
     <use xlink:href="#DejaVuSans-61" transform="translate(29.492188 0)"/>
     <use xlink:href="#DejaVuSans-6e" transform="translate(90.771484 0)"/>
    </g>
   </g>
   <g id="text_2">
    <!-- Feb -->
    <g transform="translate(95.24 137.248437) scale(0.1 -0.1)">
     <defs>
      <path id="DejaVuSans-46" d="M 628 4666
L 3309 4666
L 3309 4134
L 1259 4134
L 1259 2759
L 3109 2759
L 3109 2228
L 1259 2228
L 1259 0
L 628 0
L 628 4666
z
" transform="scale(0.015625)"/>
      <path id="DejaVuSans-65" d="M 3597 1894
L 3597 1613
L 953 1613
Q 991 1019 1311 708
Q 1631 397 2203 397
Q 2534 397 2845 478
Q 3156 559 3463 722
L 3463 178
Q 3153 47 2828 -22
Q 2503 -91 2169 -91
Q 1331 -91 842 396
Q 353 884 353 1716
Q 353 2575 817 3079
Q 1281 3584 2069 3584
Q 2775 3584 3186 3129
Q 3597 2675 3597 1894
z
M 3022 2063
Q 3016 2534 2758 2815
Q 2500 3097 2075 3097
Q 1594 3097 1305 2825
Q 1016 2553 972 2059
L 3022 2063
z
" transform="scale(0.015625)"/>
      <path id="DejaVuSans-62" d="M 3116 1747
Q 3116 2381 2855 2742
Q 2594 3103 2138 3103
Q 1681 3103 1420 2742
Q 1159 2381 1159 1747
Q 1159 1113 1420 752
Q 1681 391 2138 391
Q 2594 391 2855 752
Q 3116 1113 3116 1747
z
M 1159 2969
Q 1341 3281 1617 3432
Q 1894 3584 2278 3584
Q 2916 3584 3314 3078
Q 3713 2572 3713 1747
Q 3713 922 3314 415
Q 2916 -91 2278 -91
Q 1894 -91 1617 61
Q 1341 213 1159 525
L 1159 0
L 581 0
L 581 4863
L 1159 4863
L 1159 2969
z
" transform="scale(0.015625)"/>
     </defs>
     <use xlink:href="#DejaVuSans-46"/>
     <use xlink:href="#DejaVuSans-65" transform="translate(52.019531 0)"/>
     <use xlink:href="#DejaVuSans-62" transform="translate(113.542969 0)"/>
    </g>
   </g>
   <g id="text_3">
    <!-- Mar -->
    <g transform="translate(157.24 137.248437) scale(0.1 -0.1)">
     <defs>
      <path id="DejaVuSans-4d" d="M 628 4666
L 1569 4666
L 2759 1491
L 3956 4666
L 4897 4666
L 4897 0
L 4281 0
L 4281 4097
L 3078 897
L 2444 897
L 1241 4097
L 1241 0
L 628 0
L 628 4666
z
" transform="scale(0.015625)"/>
      <path id="DejaVuSans-72" d="M 2631 2963
Q 2534 3019 2420 3045
Q 2306 3072 2169 3072
Q 1681 3072 1420 2755
Q 1159 2438 1159 1844
L 1159 0
L 581 0
L 581 3500
L 1159 3500
L 1159 2956
Q 1341 3275 1631 3429
Q 1922 3584 2338 3584
Q 2397 3584 2469 3576
Q 2541 3569 2628 3553
L 2631 2963
z
" transform="scale(0.015625)"/>
     </defs>
     <use xlink:href="#DejaVuSans-4d"/>
     <use xlink:href="#DejaVuSans-61" transform="translate(86.279297 0)"/>
     <use xlink:href="#DejaVuSans-72" transform="translate(147.558594 0)"/>
    </g>
   </g>
   <g id="text_4">
    <!-- Apr -->
    <g transform="translate(234.74 137.248437) scale(0.1 -0.1)">
     <defs>
      <path id="DejaVuSans-41" d="M 2188 4044
L 1331 1722
L 3047 1722
L 2188 4044
z
M 1831 4666
L 2547 4666
L 4325 0
L 3669 0
L 3244 1197
L 1141 1197
L 716 0
L 50 0
L 1831 4666
z
" transform="scale(0.015625)"/>
      <path id="DejaVuSans-70" d="M 1159 525
L 1159 -1331
L 581 -1331
L 581 3500
L 1159 3500
L 1159 2969
Q 1341 3281 1617 3432
Q 1894 3584 2278 3584
Q 2916 3584 3314 3078
Q 3713 2572 3713 1747
Q 3713 922 3314 415
Q 2916 -91 2278 -91
Q 1894 -91 1617 61
Q 1341 213 1159 525
z
M 3116 1747
Q 3116 2381 2855 2742
Q 2594 3103 2138 3103
Q 1681 3103 1420 2742
Q 1159 2381 1159 1747
Q 1159 1113 1420 752
Q 1681 391 2138 391
Q 2594 391 2855 752
Q 3116 1113 3116 1747
z
" transform="scale(0.015625)"/>
     </defs>
     <use xlink:href="#DejaVuSans-41"/>
     <use xlink:href="#DejaVuSans-70" transform="translate(68.408203 0)"/>
     <use xlink:href="#DejaVuSans-72" transform="translate(131.884766 0)"/>
    </g>
   </g>
   <g id="text_5">
    <!-- May -->
    <g transform="translate(296.74 137.248437) scale(0.1 -0.1)">
     <defs>
      <path id="DejaVuSans-79" d="M 2059 -325
Q 1816 -950 1584 -1140
Q 1353 -1331 966 -1331
L 506 -1331
L 506 -850
L 844 -850
Q 1081 -850 1212 -737
Q 1344 -625 1503 -206
L 1606 56
L 191 3500
L 800 3500
L 1894 763
L 2988 3500
L 3597 3500
L 2059 -325
z
" transform="scale(0.015625)"/>
     </defs>
     <use xlink:href="#DejaVuSans-4d"/>
     <use xlink:href="#DejaVuSans-61" transform="translate(86.279297 0)"/>
     <use xlink:href="#DejaVuSans-79" transform="translate(147.558594 0)"/>
    </g>
   </g>
   <g id="text_6">
    <!-- Jun -->
    <g transform="translate(358.74 137.248437) scale(0.1 -0.1)">
     <defs>
      <path id="DejaVuSans-75" d="M 544 1381
L 544 3500
L 1119 3500
L 1119 1403
Q 1119 906 1312 657
Q 1506 409 1894 409
Q 2359 409 2629 706
Q 2900 1003 2900 1516
L 2900 3500
L 3475 3500
L 3475 0
L 2900 0
L 2900 538
Q 2691 219 2414 64
Q 2138 -91 1772 -91
Q 1169 -91 856 284
Q 544 659 544 1381
z
M 1991 3584
L 1991 3584
z
" transform="scale(0.015625)"/>
     </defs>
     <use xlink:href="#DejaVuSans-4a"/>
     <use xlink:href="#DejaVuSans-75" transform="translate(29.492188 0)"/>
     <use xlink:href="#DejaVuSans-6e" transform="translate(92.871094 0)"/>
    </g>
   </g>
   <g id="text_7">
    <!-- Jul -->
    <g transform="translate(436.24 137.248437) scale(0.1 -0.1)">
     <defs>
      <path id="DejaVuSans-6c" d="M 603 4863
L 1178 4863
L 1178 0
L 603 0
L 603 4863
z
" transform="scale(0.015625)"/>
     </defs>
     <use xlink:href="#DejaVuSans-4a"/>
     <use xlink:href="#DejaVuSans-75" transform="translate(29.492188 0)"/>
     <use xlink:href="#DejaVuSans-6c" transform="translate(92.871094 0)"/>
    </g>
   </g>
   <g id="text_8">
    <!-- Aug -->
    <g transform="translate(498.24 137.248437) scale(0.1 -0.1)">
     <defs>
      <path id="DejaVuSans-67" d="M 2906 1791
Q 2906 2416 2648 2759
Q 2391 3103 1925 3103
Q 1463 3103 1205 2759
Q 947 2416 947 1791
Q 947 1169 1205 825
Q 1463 481 1925 481
Q 2391 481 2648 825
Q 2906 1169 2906 1791
z
M 3481 434
Q 3481 -459 3084 -895
Q 2688 -1331 1869 -1331
Q 1566 -1331 1297 -1286
Q 1028 -1241 775 -1147
L 775 -588
Q 1028 -725 1275 -790
Q 1522 -856 1778 -856
Q 2344 -856 2625 -561
Q 2906 -266 2906 331
L 2906 616
Q 2728 306 2450 153
Q 2172 0 1784 0
Q 1141 0 747 490
Q 353 981 353 1791
Q 353 2603 747 3093
Q 1141 3584 1784 3584
Q 2172 3584 2450 3431
Q 2728 3278 2906 2969
L 2906 3500
L 3481 3500
L 3481 434
z
" transform="scale(0.015625)"/>
     </defs>
     <use xlink:href="#DejaVuSans-41"/>
     <use xlink:href="#DejaVuSans-75" transform="translate(68.408203 0)"/>
     <use xlink:href="#DejaVuSans-67" transform="translate(131.787109 0)"/>
    </g>
   </g>
   <g id="text_9">
    <!-- Sep -->
    <g transform="translate(575.74 137.248437) scale(0.1 -0.1)">
     <defs>
      <path id="DejaVuSans-53" d="M 3425 4513
L 3425 3897
Q 3066 4069 2747 4153
Q 2428 4238 2131 4238
Q 1616 4238 1336 4038
Q 1056 3838 1056 3469
Q 1056 3159 1242 3001
Q 1428 2844 1947 2747
L 2328 2669
Q 3034 2534 3370 2195
Q 3706 1856 3706 1288
Q 3706 609 3251 259
Q 2797 -91 1919 -91
Q 1588 -91 1214 -16
Q 841 59 441 206
L 441 856
Q 825 641 1194 531
Q 1563 422 1919 422
Q 2459 422 2753 634
Q 3047 847 3047 1241
Q 3047 1584 2836 1778
Q 2625 1972 2144 2069
L 1759 2144
Q 1053 2284 737 2584
Q 422 2884 422 3419
Q 422 4038 858 4394
Q 1294 4750 2059 4750
Q 2388 4750 2728 4690
Q 3069 4631 3425 4513
z
" transform="scale(0.015625)"/>
     </defs>
     <use xlink:href="#DejaVuSans-53"/>
     <use xlink:href="#DejaVuSans-65" transform="translate(63.476562 0)"/>
     <use xlink:href="#DejaVuSans-70" transform="translate(125 0)"/>
    </g>
   </g>
   <g id="text_10">
    <!-- Oct -->
    <g transform="translate(637.74 137.248437) scale(0.1 -0.1)">
     <defs>
      <path id="DejaVuSans-4f" d="M 2522 4238
Q 1834 4238 1429 3725
Q 1025 3213 1025 2328
Q 1025 1447 1429 934
Q 1834 422 2522 422
Q 3209 422 3611 934
Q 4013 1447 4013 2328
Q 4013 3213 3611 3725
Q 3209 4238 2522 4238
z
M 2522 4750
Q 3503 4750 4090 4092
Q 4678 3434 4678 2328
Q 4678 1225 4090 567
Q 3503 -91 2522 -91
Q 1538 -91 948 565
Q 359 1222 359 2328
Q 359 3434 948 4092
Q 1538 4750 2522 4750
z
" transform="scale(0.015625)"/>
      <path id="DejaVuSans-63" d="M 3122 3366
L 3122 2828
Q 2878 2963 2633 3030
Q 2388 3097 2138 3097
Q 1578 3097 1268 2742
Q 959 2388 959 1747
Q 959 1106 1268 751
Q 1578 397 2138 397
Q 2388 397 2633 464
Q 2878 531 3122 666
L 3122 134
Q 2881 22 2623 -34
Q 2366 -91 2075 -91
Q 1284 -91 818 406
Q 353 903 353 1747
Q 353 2603 823 3093
Q 1294 3584 2113 3584
Q 2378 3584 2631 3529
Q 2884 3475 3122 3366
z
" transform="scale(0.015625)"/>
      <path id="DejaVuSans-74" d="M 1172 4494
L 1172 3500
L 2356 3500
L 2356 3053
L 1172 3053
L 1172 1153
Q 1172 725 1289 603
Q 1406 481 1766 481
L 2356 481
L 2356 0
L 1766 0
Q 1100 0 847 248
Q 594 497 594 1153
L 594 3053
L 172 3053
L 172 3500
L 594 3500
L 594 4494
L 1172 4494
z
" transform="scale(0.015625)"/>
     </defs>
     <use xlink:href="#DejaVuSans-4f"/>
     <use xlink:href="#DejaVuSans-63" transform="translate(78.710938 0)"/>
     <use xlink:href="#DejaVuSans-74" transform="translate(133.691406 0)"/>
    </g>
   </g>
   <g id="text_11">
    <!-- Nov -->
    <g transform="translate(699.74 137.248437) scale(0.1 -0.1)">
     <defs>
      <path id="DejaVuSans-4e" d="M 628 4666
L 1478 4666
L 3547 763
L 3547 4666
L 4159 4666
L 4159 0
L 3309 0
L 1241 3903
L 1241 0
L 628 0
L 628 4666
z
" transform="scale(0.015625)"/>
      <path id="DejaVuSans-6f" d="M 1959 3097
Q 1497 3097 1228 2736
Q 959 2375 959 1747
Q 959 1119 1226 758
Q 1494 397 1959 397
Q 2419 397 2687 759
Q 2956 1122 2956 1747
Q 2956 2369 2687 2733
Q 2419 3097 1959 3097
z
M 1959 3584
Q 2709 3584 3137 3096
Q 3566 2609 3566 1747
Q 3566 888 3137 398
Q 2709 -91 1959 -91
Q 1206 -91 779 398
Q 353 888 353 1747
Q 353 2609 779 3096
Q 1206 3584 1959 3584
z
" transform="scale(0.015625)"/>
      <path id="DejaVuSans-76" d="M 191 3500
L 800 3500
L 1894 563
L 2988 3500
L 3597 3500
L 2284 0
L 1503 0
L 191 3500
z
" transform="scale(0.015625)"/>
     </defs>
     <use xlink:href="#DejaVuSans-4e"/>
     <use xlink:href="#DejaVuSans-6f" transform="translate(74.804688 0)"/>
     <use xlink:href="#DejaVuSans-76" transform="translate(135.986328 0)"/>
    </g>
   </g>
   <g id="text_12">
    <!-- Dec -->
    <g transform="translate(777.24 137.248437) scale(0.1 -0.1)">
     <defs>
      <path id="DejaVuSans-44" d="M 1259 4147
L 1259 519
L 2022 519
Q 2988 519 3436 956
Q 3884 1394 3884 2338
Q 3884 3275 3436 3711
Q 2988 4147 2022 4147
L 1259 4147
z
M 628 4666
L 1925 4666
Q 3281 4666 3915 4102
Q 4550 3538 4550 2338
Q 4550 1131 3912 565
Q 3275 0 1925 0
L 628 0
L 628 4666
z
" transform="scale(0.015625)"/>
     </defs>
     <use xlink:href="#DejaVuSans-44"/>
     <use xlink:href="#DejaVuSans-65" transform="translate(77.001953 0)"/>
     <use xlink:href="#DejaVuSans-63" transform="translate(138.525391 0)"/>
    </g>
   </g>
   <g id="text_13">
    <!-- Sun -->
    <g transform="translate(7.2 25.459375) scale(0.1 -0.1)">
     <use xlink:href="#DejaVuSans-53"/>
     <use xlink:href="#DejaVuSans-75" transform="translate(63.476562 0)"/>
     <use xlink:href="#DejaVuSans-6e" transform="translate(126.855469 0)"/>
    </g>
   </g>
   <g id="text_14">
    <!-- Mon -->
    <g transform="translate(7.2 40.959375) scale(0.1 -0.1)">
     <use xlink:href="#DejaVuSans-4d"/>
     <use xlink:href="#DejaVuSans-6f" transform="translate(86.279297 0)"/>
     <use xlink:href="#DejaVuSans-6e" transform="translate(147.460938 0)"/>
    </g>
   </g>
   <g id="text_15">
    <!-- Tue -->
    <g transform="translate(7.2 56.459375) scale(0.1 -0.1)">
     <defs>
      <path id="DejaVuSans-54" d="M -19 4666
L 3928 4666
L 3928 4134
L 2272 4134
L 2272 0
L 1638 0
L 1638 4134
L -19 4134
L -19 4666
z
" transform="scale(0.015625)"/>
     </defs>
     <use xlink:href="#DejaVuSans-54"/>
     <use xlink:href="#DejaVuSans-75" transform="translate(45.958984 0)"/>
     <use xlink:href="#DejaVuSans-65" transform="translate(109.337891 0)"/>
    </g>
   </g>
   <g id="text_16">
    <!-- Wed -->
    <g transform="translate(7.2 71.959375) scale(0.1 -0.1)">
     <defs>
      <path id="DejaVuSans-57" d="M 213 4666
L 850 4666
L 1831 722
L 2809 4666
L 3519 4666
L 4500 722
L 5478 4666
L 6119 4666
L 4947 0
L 4153 0
L 3169 4050
L 2175 0
L 1381 0
L 213 4666
z
" transform="scale(0.015625)"/>
      <path id="DejaVuSans-64" d="M 2906 2969
L 2906 4863
L 3481 4863
L 3481 0
L 2906 0
L 2906 525
Q 2725 213 2448 61
Q 2172 -91 1784 -91
Q 1150 -91 751 415
Q 353 922 353 1747
Q 353 2572 751 3078
Q 1150 3584 1784 3584
Q 2172 3584 2448 3432
Q 2725 3281 2906 2969
z
M 947 1747
Q 947 1113 1208 752
Q 1469 391 1925 391
Q 2381 391 2643 752
Q 2906 1113 2906 1747
Q 2906 2381 2643 2742
Q 2381 3103 1925 3103
Q 1469 3103 1208 2742
Q 947 2381 947 1747
z
" transform="scale(0.015625)"/>
     </defs>
     <use xlink:href="#DejaVuSans-57"/>
     <use xlink:href="#DejaVuSans-65" transform="translate(93.001953 0)"/>
     <use xlink:href="#DejaVuSans-64" transform="translate(154.525391 0)"/>
    </g>
   </g>
   <g id="text_17">
    <!-- Thu -->
    <g transform="translate(7.2 87.459375) scale(0.1 -0.1)">
     <defs>
      <path id="DejaVuSans-68" d="M 3513 2113
L 3513 0
L 2938 0
L 2938 2094
Q 2938 2591 2744 2837
Q 2550 3084 2163 3084
Q 1697 3084 1428 2787
Q 1159 2491 1159 1978
L 1159 0
L 581 0
L 581 4863
L 1159 4863
L 1159 2956
Q 1366 3272 1645 3428
Q 1925 3584 2291 3584
Q 2894 3584 3203 3211
Q 3513 2838 3513 2113
z
" transform="scale(0.015625)"/>
     </defs>
     <use xlink:href="#DejaVuSans-54"/>
     <use xlink:href="#DejaVuSans-68" transform="translate(61.083984 0)"/>
     <use xlink:href="#DejaVuSans-75" transform="translate(124.462891 0)"/>
    </g>
   </g>
   <g id="text_18">
    <!-- Fri -->
    <g transform="translate(7.2 102.959375) scale(0.1 -0.1)">
     <defs>
      <path id="DejaVuSans-69" d="M 603 3500
L 1178 3500
L 1178 0
L 603 0
L 603 3500
z
M 603 4863
L 1178 4863
L 1178 4134
L 603 4134
L 603 4863
z
" transform="scale(0.015625)"/>
     </defs>
     <use xlink:href="#DejaVuSans-46"/>
     <use xlink:href="#DejaVuSans-72" transform="translate(50.269531 0)"/>
     <use xlink:href="#DejaVuSans-69" transform="translate(91.382812 0)"/>
    </g>
   </g>
   <g id="text_19">
    <!-- Sat -->
    <g transform="translate(7.2 118.459375) scale(0.1 -0.1)">
     <use xlink:href="#DejaVuSans-53"/>
     <use xlink:href="#DejaVuSans-61" transform="translate(63.476562 0)"/>
     <use xlink:href="#DejaVuSans-74" transform="translate(124.755859 0)"/>
    </g>
   </g>
  </g>
 </g>
 <defs>
  <clipPath id="pe9c6f54dbb">
   <rect x="23.94" y="7.2" width="837" height="124"/>
  </clipPath>
 </defs>
</svg>
